<?xml version="1.0" encoding="UTF-8" standalone="no"?>
<!-- Created with Inkscape (http://www.inkscape.org/) -->

<svg
   xmlns:dc="http://purl.org/dc/elements/1.1/"
   xmlns:cc="http://creativecommons.org/ns#"
   xmlns:rdf="http://www.w3.org/1999/02/22-rdf-syntax-ns#"
   xmlns:svg="http://www.w3.org/2000/svg"
   xmlns="http://www.w3.org/2000/svg"
   xmlns:sodipodi="http://sodipodi.sourceforge.net/DTD/sodipodi-0.dtd"
   xmlns:inkscape="http://www.inkscape.org/namespaces/inkscape"
   id="svg11711"
   version="1.1"
   inkscape:version="0.92.4 5da689c313, 2019-01-14"
   width="802.37604"
   height="586.15131"
   sodipodi:docname="afm_setup3.svg">
  <sodipodi:namedview
     pagecolor="#ffffff"
     bordercolor="#666666"
     borderopacity="1"
     objecttolerance="10"
     gridtolerance="10"
     guidetolerance="10"
     inkscape:pageopacity="0"
     inkscape:pageshadow="2"
     inkscape:window-width="1920"
     inkscape:window-height="1209"
     id="namedview11713"
     showgrid="false"
     inkscape:zoom="0.87961643"
     inkscape:cx="512.82542"
     inkscape:cy="306.26432"
     inkscape:window-x="0"
     inkscape:window-y="34"
     inkscape:window-maximized="1"
     inkscape:current-layer="svg11711"
     fit-margin-top="0"
     fit-margin-left="0"
     fit-margin-right="0"
     fit-margin-bottom="0" />
  <metadata
     id="metadata11717">
    <rdf:RDF>
      <cc:Work
         rdf:about="">
        <dc:format>image/svg+xml</dc:format>
        <dc:type
           rdf:resource="http://purl.org/dc/dcmitype/StillImage" />
        <dc:title></dc:title>
      </cc:Work>
    </rdf:RDF>
  </metadata>
  <defs
     id="defs11715">
    <marker
       inkscape:stockid="StopL"
       orient="auto"
       refY="0"
       refX="0"
       id="StopL"
       style="overflow:visible">
      <path
         id="path12685"
         d="M 0,5.65 V -5.65"
         style="fill:none;fill-opacity:0.75;fill-rule:evenodd;stroke:#000000;stroke-width:1.00000003pt"
         transform="scale(0.8)"
         inkscape:connector-curvature="0" />
    </marker>
    <marker
       inkscape:stockid="StopM"
       orient="auto"
       refY="0"
       refX="0"
       id="StopM"
       style="overflow:visible">
      <path
         id="path12688"
         d="M 0,5.65 V -5.65"
         style="fill:none;fill-opacity:0.75;fill-rule:evenodd;stroke:#000000;stroke-width:1.00000003pt"
         transform="scale(0.4)"
         inkscape:connector-curvature="0" />
    </marker>
    <marker
       inkscape:stockid="Arrow1Mstart"
       orient="auto"
       refY="0"
       refX="0"
       id="Arrow1Mstart"
       style="overflow:visible">
      <path
         id="path12522"
         d="M 0,0 5,-5 -12.5,0 5,5 Z"
         style="fill-rule:evenodd;stroke:#000000;stroke-width:1.00000003pt"
         transform="matrix(0.4,0,0,0.4,4,0)"
         inkscape:connector-curvature="0" />
    </marker>
    <marker
       style="overflow:visible"
       id="Arrow1Mend"
       refX="0"
       refY="0"
       orient="auto"
       inkscape:stockid="Arrow1Mend">
      <path
         transform="matrix(-0.4,0,0,-0.4,-4,0)"
         style="fill-rule:evenodd;stroke:#000000;stroke-width:1.00000003pt"
         d="M 0,0 5,-5 -12.5,0 5,5 Z"
         id="path12525"
         inkscape:connector-curvature="0" />
    </marker>
    <marker
       inkscape:stockid="Arrow2Lend"
       orient="auto"
       refY="0"
       refX="0"
       id="Arrow2Lend"
       style="overflow:visible">
      <path
         id="path12537"
         style="fill-rule:evenodd;stroke-width:0.625;stroke-linejoin:round"
         d="M 8.7185878,4.0337352 -2.2072895,0.01601326 8.7185884,-4.0017078 c -1.7454984,2.3720609 -1.7354408,5.6174519 -6e-7,8.035443 z"
         transform="matrix(-1.1,0,0,-1.1,-1.1,0)"
         inkscape:connector-curvature="0" />
    </marker>
    <marker
       inkscape:stockid="Arrow2Lend"
       orient="auto"
       refY="0"
       refX="0"
       id="Arrow2Lend-0"
       style="overflow:visible">
      <path
         inkscape:connector-curvature="0"
         id="path12537-9"
         style="fill-rule:evenodd;stroke-width:0.625;stroke-linejoin:round"
         d="M 8.7185878,4.0337352 -2.2072895,0.01601326 8.7185884,-4.0017078 c -1.7454984,2.3720609 -1.7354408,5.6174519 -6e-7,8.035443 z"
         transform="matrix(-1.1,0,0,-1.1,-1.1,0)" />
    </marker>
    <clipPath
       clipPathUnits="userSpaceOnUse"
       id="clipPath13143">
      <rect
         style="fill:none;stroke:#3139ae;stroke-width:0.32050806;stroke-linecap:butt;stroke-linejoin:round;stroke-miterlimit:4;stroke-dasharray:none;stroke-dashoffset:0;stroke-opacity:1"
         id="rect13145"
         width="5.6001153"
         height="11.103105"
         x="301.59232"
         y="151.40549"
         rx="12.168327"
         ry="0" />
    </clipPath>
    <clipPath
       clipPathUnits="userSpaceOnUse"
       id="clipPath13143-8">
      <rect
         style="fill:none;stroke:#3139ae;stroke-width:0.32050806;stroke-linecap:butt;stroke-linejoin:round;stroke-miterlimit:4;stroke-dasharray:none;stroke-dashoffset:0;stroke-opacity:1"
         id="rect13145-5"
         width="5.6001153"
         height="11.103105"
         x="301.59232"
         y="151.40549"
         rx="12.168327"
         ry="0" />
    </clipPath>
    <clipPath
       clipPathUnits="userSpaceOnUse"
       id="clipPath13143-80">
      <rect
         style="fill:none;stroke:#3139ae;stroke-width:0.32050806;stroke-linecap:butt;stroke-linejoin:round;stroke-miterlimit:4;stroke-dasharray:none;stroke-dashoffset:0;stroke-opacity:1"
         id="rect13145-9"
         width="5.6001153"
         height="11.103105"
         x="301.59232"
         y="151.40549"
         rx="12.168327"
         ry="0" />
    </clipPath>
    <marker
       inkscape:stockid="Arrow2Lend"
       orient="auto"
       refY="0"
       refX="0"
       id="Arrow2Lend-5"
       style="overflow:visible">
      <path
         inkscape:connector-curvature="0"
         id="path12537-3"
         style="fill-rule:evenodd;stroke-width:0.625;stroke-linejoin:round"
         d="M 8.7185878,4.0337352 -2.2072895,0.01601326 8.7185884,-4.0017078 c -1.7454984,2.3720609 -1.7354408,5.6174519 -6e-7,8.035443 z"
         transform="matrix(-1.1,0,0,-1.1,-1.1,0)" />
    </marker>
    <clipPath
       clipPathUnits="userSpaceOnUse"
       id="clipPath13143-80-1">
      <rect
         style="fill:none;stroke:#3139ae;stroke-width:0.32050806;stroke-linecap:butt;stroke-linejoin:round;stroke-miterlimit:4;stroke-dasharray:none;stroke-dashoffset:0;stroke-opacity:1"
         id="rect13145-9-1"
         width="5.6001153"
         height="11.103105"
         x="301.59232"
         y="151.40549"
         rx="12.168327"
         ry="0" />
    </clipPath>
    <clipPath
       clipPathUnits="userSpaceOnUse"
       id="clipPath13143-80-1-1">
      <rect
         style="fill:none;stroke:#3139ae;stroke-width:0.32050806;stroke-linecap:butt;stroke-linejoin:round;stroke-miterlimit:4;stroke-dasharray:none;stroke-dashoffset:0;stroke-opacity:1"
         id="rect13145-9-1-9"
         width="5.6001153"
         height="11.103105"
         x="301.59232"
         y="151.40549"
         rx="12.168327"
         ry="0" />
    </clipPath>
    <marker
       inkscape:stockid="Arrow2Lend-5F"
       orient="auto"
       refY="0"
       refX="0"
       id="Arrow2Lend-5F"
       style="overflow:visible">
      <path
         inkscape:connector-curvature="0"
         id="path13645"
         style="fill:#3e8213;fill-rule:evenodd;stroke:#3e8213;stroke-width:0.625;stroke-linejoin:round"
         d="M 8.7185878,4.0337352 -2.2072895,0.01601326 8.7185884,-4.0017078 c -1.7454984,2.3720609 -1.7354408,5.6174519 -6e-7,8.035443 z"
         transform="matrix(-1.1,0,0,-1.1,-1.1,0)" />
    </marker>
    <marker
       inkscape:stockid="Arrow2Lend-5F"
       orient="auto"
       refY="0"
       refX="0"
       id="Arrow2Lend-5F-8"
       style="overflow:visible">
      <path
         inkscape:connector-curvature="0"
         id="path13645-7"
         style="fill:#3e8213;fill-rule:evenodd;stroke:#3e8213;stroke-width:0.625;stroke-linejoin:round"
         d="M 8.7185878,4.0337352 -2.2072895,0.01601326 8.7185884,-4.0017078 c -1.7454984,2.3720609 -1.7354408,5.6174519 -6e-7,8.035443 z"
         transform="matrix(-1.1,0,0,-1.1,-1.1,0)" />
    </marker>
    <marker
       inkscape:stockid="Arrow2Lend-5F"
       orient="auto"
       refY="0"
       refX="0"
       id="Arrow2Lend-5F-3"
       style="overflow:visible">
      <path
         inkscape:connector-curvature="0"
         id="path13645-79"
         style="fill:#3e8213;fill-rule:evenodd;stroke:#3e8213;stroke-width:0.625;stroke-linejoin:round"
         d="M 8.7185878,4.0337352 -2.2072895,0.01601326 8.7185884,-4.0017078 c -1.7454984,2.3720609 -1.7354408,5.6174519 -6e-7,8.035443 z"
         transform="matrix(-1.1,0,0,-1.1,-1.1,0)" />
    </marker>
    <marker
       style="overflow:visible"
       id="Arrow1MendZ"
       refX="0"
       refY="0"
       orient="auto"
       inkscape:stockid="Arrow1MendZ">
      <path
         transform="matrix(-0.4,0,0,-0.4,-4,0)"
         style="fill:#3e8213;fill-rule:evenodd;stroke:#3e8213;stroke-width:1.00000003pt"
         d="M 0,0 5,-5 -12.5,0 5,5 Z"
         id="path14025"
         inkscape:connector-curvature="0" />
    </marker>
    <marker
       style="overflow:visible"
       id="Arrow1MendZ-5"
       refX="0"
       refY="0"
       orient="auto"
       inkscape:stockid="Arrow1MendZ">
      <path
         inkscape:connector-curvature="0"
         transform="matrix(-0.4,0,0,-0.4,-4,0)"
         style="fill:#3e8213;fill-rule:evenodd;stroke:#3e8213;stroke-width:1.00000003pt"
         d="M 0,0 5,-5 -12.5,0 5,5 Z"
         id="path14025-9" />
    </marker>
    <marker
       style="overflow:visible"
       id="Arrow1MendZ-6"
       refX="0"
       refY="0"
       orient="auto"
       inkscape:stockid="Arrow1MendZ">
      <path
         inkscape:connector-curvature="0"
         transform="matrix(-0.4,0,0,-0.4,-4,0)"
         style="fill:#3e8213;fill-rule:evenodd;stroke:#3e8213;stroke-width:1.00000003pt"
         d="M 0,0 5,-5 -12.5,0 5,5 Z"
         id="path14025-7" />
    </marker>
    <marker
       style="overflow:visible"
       id="Arrow1MendZ-1"
       refX="0"
       refY="0"
       orient="auto"
       inkscape:stockid="Arrow1MendZ">
      <path
         inkscape:connector-curvature="0"
         transform="matrix(-0.4,0,0,-0.4,-4,0)"
         style="fill:#3e8213;fill-rule:evenodd;stroke:#3e8213;stroke-width:1.00000003pt"
         d="M 0,0 5,-5 -12.5,0 5,5 Z"
         id="path14025-2" />
    </marker>
    <marker
       style="overflow:visible"
       id="StopL4"
       refX="0"
       refY="0"
       orient="auto"
       inkscape:stockid="StopL4">
      <path
         transform="scale(0.8)"
         style="fill:none;fill-opacity:0.75;fill-rule:evenodd;stroke:#800000;stroke-width:1.00000003pt;stroke-opacity:1"
         d="M 0,5.65 V -5.65"
         id="path2235"
         inkscape:connector-curvature="0" />
    </marker>
    <marker
       style="overflow:visible"
       id="StopLU"
       refX="0"
       refY="0"
       orient="auto"
       inkscape:stockid="StopLU">
      <path
         transform="scale(0.8)"
         style="fill:none;fill-opacity:0.75;fill-rule:evenodd;stroke:#800000;stroke-width:1.00000003pt;stroke-opacity:1"
         d="M 0,5.65 V -5.65"
         id="path2238"
         inkscape:connector-curvature="0" />
    </marker>
    <marker
       inkscape:stockid="StopL4U"
       orient="auto"
       refY="0"
       refX="0"
       id="StopL4U"
       style="overflow:visible">
      <path
         id="path2330"
         d="M 0,5.65 V -5.65"
         style="fill:none;fill-opacity:0.75;fill-rule:evenodd;stroke:#800080;stroke-width:1.00000003pt;stroke-opacity:1"
         transform="scale(0.8)"
         inkscape:connector-curvature="0" />
    </marker>
    <marker
       inkscape:stockid="StopLUw"
       orient="auto"
       refY="0"
       refX="0"
       id="StopLUw"
       style="overflow:visible">
      <path
         id="path2333"
         d="M 0,5.65 V -5.65"
         style="fill:none;fill-opacity:0.75;fill-rule:evenodd;stroke:#800080;stroke-width:1.00000003pt;stroke-opacity:1"
         transform="scale(0.8)"
         inkscape:connector-curvature="0" />
    </marker>
    <clipPath
       id="p0d4fe703b8"
       style="stroke-linecap:butt;stroke-linejoin:round">
      <rect
         id="rect35112"
         y="24.992279"
         x="64.70137"
         width="170.57634"
         height="124.9614"
         style="stroke-linecap:butt;stroke-linejoin:round" />
    </clipPath>
    <clipPath
       id="clipPath6886"
       style="stroke-linecap:butt;stroke-linejoin:round">
      <rect
         id="rect6884"
         y="24.992279"
         x="64.70137"
         width="170.57634"
         height="124.9614"
         style="stroke-linecap:butt;stroke-linejoin:round" />
    </clipPath>
    <clipPath
       id="clipPath6890"
       style="stroke-linecap:butt;stroke-linejoin:round">
      <rect
         id="rect6888"
         y="24.992279"
         x="64.70137"
         width="170.57634"
         height="124.9614"
         style="stroke-linecap:butt;stroke-linejoin:round" />
    </clipPath>
    <clipPath
       id="p9492159f1b"
       style="stroke-linecap:butt;stroke-linejoin:round">
      <rect
         id="rect35115"
         y="149.95367"
         x="64.70137"
         width="170.57634"
         height="124.9614"
         style="stroke-linecap:butt;stroke-linejoin:round" />
    </clipPath>
    <clipPath
       id="clipPath6896"
       style="stroke-linecap:butt;stroke-linejoin:round">
      <rect
         id="rect6894"
         y="149.95367"
         x="64.70137"
         width="170.57634"
         height="124.9614"
         style="stroke-linecap:butt;stroke-linejoin:round" />
    </clipPath>
    <clipPath
       id="clipPath6900"
       style="stroke-linecap:butt;stroke-linejoin:round">
      <rect
         id="rect6898"
         y="149.95367"
         x="64.70137"
         width="170.57634"
         height="124.9614"
         style="stroke-linecap:butt;stroke-linejoin:round" />
    </clipPath>
    <clipPath
       id="clipPath6904"
       style="stroke-linecap:butt;stroke-linejoin:round">
      <rect
         id="rect6902"
         y="149.95367"
         x="64.70137"
         width="170.57634"
         height="124.9614"
         style="stroke-linecap:butt;stroke-linejoin:round" />
    </clipPath>
    <clipPath
       id="clipPath6908"
       style="stroke-linecap:butt;stroke-linejoin:round">
      <rect
         id="rect6906"
         y="149.95367"
         x="64.70137"
         width="170.57634"
         height="124.9614"
         style="stroke-linecap:butt;stroke-linejoin:round" />
    </clipPath>
    <clipPath
       id="clipPath6912"
       style="stroke-linecap:butt;stroke-linejoin:round">
      <rect
         id="rect6910"
         y="149.95367"
         x="64.70137"
         width="170.57634"
         height="124.9614"
         style="stroke-linecap:butt;stroke-linejoin:round" />
    </clipPath>
    <clipPath
       id="clipPath6916"
       style="stroke-linecap:butt;stroke-linejoin:round">
      <rect
         id="rect6914"
         y="149.95367"
         x="64.70137"
         width="170.57634"
         height="124.9614"
         style="stroke-linecap:butt;stroke-linejoin:round" />
    </clipPath>
    <clipPath
       id="p5989690b2b"
       style="stroke-linecap:butt;stroke-linejoin:round">
      <rect
         id="rect35118"
         y="274.91507"
         x="64.70137"
         width="170.57634"
         height="124.9614"
         style="stroke-linecap:butt;stroke-linejoin:round" />
    </clipPath>
    <clipPath
       id="clipPath6922"
       style="stroke-linecap:butt;stroke-linejoin:round">
      <rect
         id="rect6920"
         y="274.91507"
         x="64.70137"
         width="170.57634"
         height="124.9614"
         style="stroke-linecap:butt;stroke-linejoin:round" />
    </clipPath>
    <clipPath
       id="clipPath6926"
       style="stroke-linecap:butt;stroke-linejoin:round">
      <rect
         id="rect6924"
         y="274.91507"
         x="64.70137"
         width="170.57634"
         height="124.9614"
         style="stroke-linecap:butt;stroke-linejoin:round" />
    </clipPath>
    <path
       style="stroke:#000000;stroke-width:0.80000001;stroke-linecap:butt;stroke-linejoin:round"
       id="path35201"
       d="M 0,0 V -3.5"
       inkscape:connector-curvature="0" />
    <path
       style="stroke:#000000;stroke-width:0.80000001;stroke-linecap:butt;stroke-linejoin:round"
       id="path35225"
       d="M 0,0 H -3.5"
       inkscape:connector-curvature="0" />
    <path
       id="path35231"
       d="m 51.09375,50.09375 c 0,12 -9.296875,20.8125 -22.6875,20.8125 C 13.90625,70.90625 5.5,63.5 5,46.296875 h 8.796875 c 0.703125,11.90625 5.609375,16.90625 14.296875,16.90625 8,0 14,-5.703125 14,-13.296875 0,-5.609375 -3.296875,-10.40625 -9.59375,-14 L 23.296875,30.703125 C 8.5,22.296875 4.203125,15.59375 3.40625,0 h 47.1875 V 8.703125 H 13.296875 c 0.90625,5.796875 4.109375,9.5 12.796875,14.59375 l 10,5.40625 C 46,34 51.09375,41.40625 51.09375,50.09375 Z"
       inkscape:connector-curvature="0"
       style="stroke-linecap:butt;stroke-linejoin:round" />
    <path
       id="path35233"
       d="m 50.703125,34.09375 c 0,24.609375 -7.796875,36.8125 -23.203125,36.8125 C 12.203125,70.90625 4.296875,58.5 4.296875,34.703125 4.296875,10.796875 12.296875,-1.5 27.5,-1.5 c 15,0 23.203125,12.296875 23.203125,35.59375 z m -9,0.8125 c 0,-20.109375 -4.609375,-29.109375 -14.40625,-29.109375 -9.296875,0 -14,9.40625 -14,28.796875 0,19.40625 4.703125,28.5 14.203125,28.5 9.5,0 14.203125,-9.1875 14.203125,-28.1875 z"
       inkscape:connector-curvature="0"
       style="stroke-linecap:butt;stroke-linejoin:round" />
    <path
       id="path35245"
       d="m 51.296875,23.5 c 0,14 -9.296875,23.203125 -22.890625,23.203125 -5,0 -9,-1.296875 -13.109375,-4.296875 l 2.796875,18.296875 h 29.5 V 69.40625 H 11 L 5.703125,32.296875 h 8.09375 c 4.109375,4.90625 7.5,6.609375 13,6.609375 9.5,0 15.5,-6.109375 15.5,-16.609375 0,-10.203125 -5.890625,-16 -15.5,-16 -7.703125,0 -12.390625,3.90625 -14.5,11.90625 H 3.5 C 6.40625,4.09375 14.40625,-1.5 27,-1.5 c 14.296875,0 24.296875,10 24.296875,25 z"
       inkscape:connector-curvature="0"
       style="stroke-linecap:butt;stroke-linejoin:round" />
    <path
       id="path35257"
       d="m 50.59375,20.59375 c 0,8.609375 -3.5,13.609375 -12,16.5 6.609375,2.609375 9.90625,7.203125 9.90625,14.3125 0,12.1875 -8.09375,19.5 -21.59375,19.5 C 12.59375,70.90625 5,63.09375 4.703125,48 H 13.5 c 0.203125,10.5 4.5,15.203125 13.5,15.203125 7.796875,0 12.5,-4.609375 12.5,-12.109375 C 39.5,43.5 36.203125,40.40625 22.09375,40.40625 V 33 h 4.8125 c 9.6875,0 14.6875,-4.59375 14.6875,-12.5 0,-8.90625 -5.5,-14.203125 -14.6875,-14.203125 -9.609375,0 -14.3125,4.796875 -14.90625,15.109375 H 3.203125 C 4.296875,5.59375 12.09375,-1.5 26.59375,-1.5 c 14.609375,0 24,8.703125 24,22.09375 z"
       inkscape:connector-curvature="0"
       style="stroke-linecap:butt;stroke-linejoin:round" />
    <path
       id="path35278"
       d="m 52,17 v 7.90625 H 41.5 v 46 H 35 L 2.796875,26.296875 V 17 h 29.90625 V 0 H 41.5 V 17 Z M 32.703125,24.90625 H 10.5 l 22.203125,31 z"
       inkscape:connector-curvature="0"
       style="stroke-linecap:butt;stroke-linejoin:round" />
    <path
       id="path35287"
       d="m 54.40625,45.296875 -20,-21.703125 L 45.203125,0 h -9.40625 L 27.90625,17.5 12.40625,0 H 3 l 22,23.90625 -9.59375,21.390625 h 9.390625 L 31.59375,30.203125 45,45.296875 Z"
       inkscape:connector-curvature="0"
       style="stroke-linecap:butt;stroke-linejoin:round" />
    <path
       id="path35289"
       d="m 33,32.09375 h -1.5 q -2.796875,4.40625 -5.609375,5.796875 -2.796875,1.40625 -6.6875,1.40625 -3.203125,0 -4.8125,-1.609375 -1.59375,-1.59375 -1.59375,-3.484375 0,-2.5 2.09375,-4.25 Q 17,28.203125 21.203125,26.5 29.5,23 32.25,20.09375 35,17.203125 35,11.796875 35,5.203125 28.90625,1.40625 25.09375,-1 18.90625,-1 q -4.5,0 -7.5625,1.296875 Q 8.296875,1.59375 5,4.5 v 10.296875 h 1.5 q 3.90625,-8.703125 13,-8.703125 3.203125,0 5.390625,1.453125 2.203125,1.453125 2.203125,4.25 0,2 -1.84375,3.453125 -1.84375,1.453125 -6.75,3.65625 -7.59375,3.390625 -10.59375,6.6875 -3,3.3125 -3,8.203125 0,5.203125 4,8.84375 4,3.65625 10.5,3.65625 Q 28,46.296875 33,41 Z"
       inkscape:connector-curvature="0"
       style="stroke-linecap:butt;stroke-linejoin:round" />
    <path
       id="path35291"
       d="m 43,1.296875 -7.09375,-2.390625 -0.90625,0.5 -0.203125,6.5 Q 31.90625,2.703125 27.75,0.84375 23.59375,-1 19.703125,-1 13.703125,-1 9,3.5 6.296875,7 6.296875,13.09375 v 32.203125 h 7.90625 V 14.90625 q 0,-8.8125 8.203125,-8.8125 2.796875,0 6.6875,2.953125 Q 33,12 34.5,16.09375 v 29.203125 h 7.90625 v -32.5 q 0,-6.59375 0.59375,-11.5 z"
       inkscape:connector-curvature="0"
       style="stroke-linecap:butt;stroke-linejoin:round" />
    <path
       id="path35293"
       d="m 32.796875,37.703125 h -2 q -1,1.5 -3.890625,1.5 Q 22.59375,39.203125 19.25,35 15.90625,30.796875 14.203125,23.40625 V 0 h -7.90625 v 44 l 7,2.40625 0.90625,-0.5 L 14.40625,39.5 q 4.796875,6.796875 12.6875,6.796875 3.703125,0 5.703125,-1.59375 z"
       inkscape:connector-curvature="0"
       style="stroke-linecap:butt;stroke-linejoin:round" />
    <path
       id="path35295"
       d="M 36.90625,63.296875 34.5,57.40625 32.90625,57.296875 q -2.109375,1.5 -3.109375,2.140625 -1,0.65625 -2.296875,1.203125 -1.296875,0.5625 -2.59375,0.5625 -3.109375,0 -5.015625,-2.5 Q 18,56.203125 18,50.90625 v -5.609375 h 11.40625 v -7.09375 H 18 V 0 H 10.09375 V 38.203125 H 2 v 7.09375 h 8.09375 v 4.109375 q 0,9.890625 4.703125,14.890625 4,4 9.40625,4 6.796875,0 12.703125,-5 z"
       inkscape:connector-curvature="0"
       style="stroke-linecap:butt;stroke-linejoin:round" />
    <path
       id="path35297"
       d=""
       inkscape:connector-curvature="0"
       style="stroke-linecap:butt;stroke-linejoin:round" />
    <path
       id="path35299"
       d="M 25,-21.203125 V -14 H 14.703125 V 65.703125 H 25 V 72.90625 H 6.40625 v -94.109375 z"
       inkscape:connector-curvature="0"
       style="stroke-linecap:butt;stroke-linejoin:round" />
    <path
       id="path35301"
       d="m 48.703125,0 v 39.59375 c 0,8.703125 -6.5,14.3125 -16.609375,14.3125 -7.796875,0 -12.796875,-3 -17.390625,-10.3125 v 8.8125 H 7 V 0 h 8.296875 v 28.90625 c 0,10.6875 5.796875,17.6875 14.296875,17.6875 6.609375,0 10.8125,-4 10.8125,-10.296875 V 0 Z"
       inkscape:connector-curvature="0"
       style="stroke-linecap:butt;stroke-linejoin:round" />
    <path
       id="path35303"
       d="m 76,0 v 39.296875 c 0,9.40625 -5.203125,14.609375 -15,14.609375 -7,0 -11.203125,-2.109375 -16.09375,-8 -3.109375,5.59375 -7.3125,8 -14.109375,8 -7,0 -11.59375,-2.609375 -16.09375,-8.90625 v 7.40625 H 7.09375 V 0 h 8.3125 v 32.90625 c 0,7.59375 5.5,13.6875 12.296875,13.6875 6.203125,0 9.703125,-3.796875 9.703125,-10.5 V 0 h 8.296875 v 32.90625 c 0,7.59375 5.59375,13.6875 12.390625,13.6875 6.109375,0 9.609375,-3.890625 9.609375,-10.5 V 0 Z"
       inkscape:connector-curvature="0"
       style="stroke-linecap:butt;stroke-linejoin:round" />
    <path
       id="path35305"
       d="M 20.90625,-21.203125 V 72.90625 H 2.296875 V 65.703125 H 12.59375 V -14 H 2.296875 v -7.203125 z"
       inkscape:connector-curvature="0"
       style="stroke-linecap:butt;stroke-linejoin:round" />
    <path
       id="path35335"
       d="m 30.203125,0 h -7.90625 V 57 Q 20.09375,56 15.75,53.75 11.40625,51.5 10.796875,51.203125 V 58.5 l 18,9.203125 1.40625,-0.5 z"
       inkscape:connector-curvature="0"
       style="stroke-linecap:butt;stroke-linejoin:round" />
    <path
       id="path35337"
       d="m 47.703125,33 q 0,-9.203125 -2.15625,-16.65625 Q 43.40625,8.90625 38.09375,3.75 32.796875,-1.40625 25,-1.40625 q -6.203125,0 -10.75,3.09375 -4.546875,3.109375 -7.046875,8.359375 -2.5,5.25 -3.703125,11.09375 Q 2.296875,27 2.296875,33.59375 q 0,9.3125 2.296875,16.75 2.3125,7.453125 7.703125,12.34375 5.40625,4.90625 13.109375,4.90625 9.796875,0 16.046875,-9.65625 6.25,-9.640625 6.25,-24.9375 z m -7.90625,0 q 0,12.203125 -4.046875,19.84375 Q 31.703125,60.5 25.203125,60.5 17.796875,60.5 14,52.75 10.203125,45 10.203125,33.40625 q 0,-5.203125 0.75,-9.859375 Q 11.703125,18.90625 13.34375,14.75 15,10.59375 18,8.140625 q 3,-2.4375 7,-2.4375 5.09375,0 8.546875,4.09375 Q 37,13.90625 38.390625,19.84375 39.796875,25.796875 39.796875,33 Z"
       inkscape:connector-curvature="0"
       style="stroke-linecap:butt;stroke-linejoin:round" />
    <path
       id="path35339"
       d="M 45.796875,67.59375 42.59375,60.5 H 24.90625 L 18.5,47.796875 Q 29.90625,46.203125 37.25,39.75 q 7.34375,-6.453125 7.34375,-17.15625 0,-9.890625 -6.75,-16.953125 Q 31.09375,-1.40625 21,-1.40625 q -11,0 -17.40625,7 l 4.703125,5.609375 q 5.109375,-5.5 12.203125,-5.5 7.40625,0 11.796875,5.046875 4.40625,5.046875 4.40625,11.84375 0,7.40625 -6.609375,12.609375 -6.6875,5.5 -20.6875,5.5 L 8,42.40625 19.59375,67.59375 Z"
       inkscape:connector-curvature="0"
       style="stroke-linecap:butt;stroke-linejoin:round" />
    <path
       id="path35341"
       d="m 28.40625,72.90625 h -5.5 L -0.796875,-2 h 5.5 z"
       inkscape:connector-curvature="0"
       style="stroke-linecap:butt;stroke-linejoin:round" />
    <path
       id="path35343"
       d="M 45.90625,14.703125 C 45.90625,22.5 41.5,26.40625 31.09375,28.90625 l -8,1.890625 c -6.796875,1.609375 -9.6875,3.796875 -9.6875,7.5 0,4.796875 4.296875,7.90625 11.09375,7.90625 6.703125,0 10.296875,-2.90625 10.5,-8.40625 h 8.796875 c -0.09375,10.296875 -6.890625,16.109375 -19,16.109375 -12.203125,0 -20.09375,-6.3125 -20.09375,-16 0,-8.203125 4.203125,-12.109375 16.59375,-15.109375 L 29.09375,20.90625 C 34.90625,19.5 37.203125,17.796875 37.203125,14 37.203125,9.09375 32.296875,6.203125 25,6.203125 17.5,6.203125 13.296875,8 12.203125,16 H 3.40625 C 3.796875,3.90625 10.59375,-1.5 24.296875,-1.5 37.5,-1.5 45.90625,4.59375 45.90625,14.703125 Z"
       inkscape:connector-curvature="0"
       style="stroke-linecap:butt;stroke-linejoin:round" />
    <path
       id="path35369"
       d="m -18.703125,75 h 2.5 q 0,-6.90625 -4.140625,-11.0625 -4.15625,-4.140625 -9.75,-4.140625 -2.5,0 -4.5,0.390625 -2,0.40625 -3.203125,0.859375 -1.203125,0.453125 -4.65625,2 -3.453125,1.546875 -6.34375,2.75 -7.40625,3.109375 -10.703125,3.109375 -3.90625,0 -6.65625,-2.359375 -2.75,-2.34375 -3.4375,-6.75 h -2.609375 q 0,7.203125 4.15625,11.203125 4.140625,4 9.34375,4 4.796875,0 19,-6.09375 7.296875,-3.203125 10.90625,-3.203125 4.09375,0 6.796875,2.390625 Q -19.296875,70.5 -18.703125,75 Z"
       inkscape:connector-curvature="0"
       style="stroke-linecap:butt;stroke-linejoin:round" />
    <path
       id="path35423"
       d="M 34.703125,0 V 70.90625 H 28.90625 C 25.796875,60 23.796875,58.5 10.203125,56.796875 V 50.5 H 25.90625 V 0 Z"
       inkscape:connector-curvature="0"
       style="stroke-linecap:butt;stroke-linejoin:round" />
    <path
       id="path35468"
       d="M 57.90625,64.703125 V 72.90625 H 9 V 0 h 9.296875 V 33.203125 H 53.09375 V 41.40625 H 18.296875 v 23.296875 z"
       inkscape:connector-curvature="0"
       style="stroke-linecap:butt;stroke-linejoin:round" />
    <path
       id="path35470"
       d="M 51,25.796875 C 51,43.90625 42.296875,53.90625 27.203125,53.90625 12.5,53.90625 3.59375,43.796875 3.59375,26.203125 3.59375,8.59375 12.40625,-1.5 27.296875,-1.5 42,-1.5 51,8.59375 51,25.796875 Z m -8.703125,0.109375 c 0,-12.3125 -5.796875,-19.703125 -15,-19.703125 -9.296875,0 -15,7.296875 -15,20 0,12.59375 5.703125,20 15,20 9.40625,0 15,-7.296875 15,-20.296875 z"
       inkscape:connector-curvature="0"
       style="stroke-linecap:butt;stroke-linejoin:round" />
    <path
       id="path35472"
       d="m 32.09375,45.09375 v 8.5 c -1.390625,0.203125 -2.09375,0.3125 -3.1875,0.3125 -5.40625,0 -9.5,-3.203125 -14.3125,-11 v 9.5 H 7 V 0 h 8.296875 v 27.203125 c 0,11.796875 3.90625,17.703125 16.796875,17.890625 z"
       inkscape:connector-curvature="0"
       style="stroke-linecap:butt;stroke-linejoin:round" />
    <path
       id="path35474"
       d="m 47.703125,18 h -8.40625 C 37.90625,9.59375 33.59375,6.203125 26.5,6.203125 c -9.203125,0 -14.703125,7.09375 -14.703125,19.5 0,13.09375 5.40625,20.5 14.5,20.5 7,0 11.40625,-4.109375 12.40625,-11.40625 h 8.390625 c -1,12.796875 -9,19.109375 -20.6875,19.109375 -14.109375,0 -23.3125,-10.8125 -23.3125,-28.203125 0,-16.90625 9,-27.203125 23.203125,-27.203125 12.5,0 20.40625,7.5 21.40625,19.5 z"
       inkscape:connector-curvature="0"
       style="stroke-linecap:butt;stroke-linejoin:round" />
    <path
       id="path35476"
       d="m 51.296875,23.796875 c 0,7.609375 -0.59375,12.40625 -2.09375,16.296875 -3.40625,8.609375 -11.40625,13.8125 -21.203125,13.8125 -14.59375,0 -24,-10.8125 -24,-28 C 4,8.703125 13.09375,-1.5 27.796875,-1.5 c 12,0 20.296875,6.796875 22.40625,17.40625 h -8.40625 C 39.5,9 34.796875,6.203125 28.09375,6.203125 c -8.6875,0 -15.1875,5.59375 -15.390625,17.59375 z m -8.890625,7.40625 c 0,0 0,-0.40625 -0.109375,-0.609375 H 12.90625 c 0.6875,9.3125 6.59375,15.609375 15,15.609375 8.1875,0 14.5,-6.796875 14.5,-15 z"
       inkscape:connector-curvature="0"
       style="stroke-linecap:butt;stroke-linejoin:round" />
    <path
       id="path35478"
       d="m 52.296875,25.703125 c 0,17.59375 -8.59375,28.203125 -22.5,28.203125 C 22.703125,53.90625 17,50.703125 13.09375,44.5 v 7.90625 H 5.5 v -74.203125 h 8.296875 V 6.296875 C 18.203125,0.90625 23.09375,-1.5 29.90625,-1.5 c 13.5,0 22.390625,10.5 22.390625,27.203125 z M 43.59375,25.90625 C 43.59375,14 37.5,6.296875 28.40625,6.296875 c -8.8125,0 -14.609375,7.203125 -14.609375,19.5 0,12.296875 5.796875,20.296875 14.609375,20.296875 9.1875,0 15.1875,-7.6875 15.1875,-20.1875 z"
       inkscape:connector-curvature="0"
       style="stroke-linecap:butt;stroke-linejoin:round" />
    <path
       id="path35480"
       d="M 64.59375,0 V 72.90625 H 55.796875 V 13.296875 L 17.703125,72.90625 H 7.59375 V 0 h 8.8125 V 59.09375 L 54.09375,0 Z"
       inkscape:connector-curvature="0"
       style="stroke-linecap:butt;stroke-linejoin:round" />
    <path
       style="stroke:#800080;stroke-linecap:butt;stroke-linejoin:round"
       id="path35498"
       d="M 0,1.5 C 0.397805,1.5 0.77937,1.341951 1.06066,1.06066 1.341951,0.77937 1.5,0.397805 1.5,0 1.5,-0.397805 1.341951,-0.77937 1.06066,-1.06066 0.77937,-1.341951 0.397805,-1.5 0,-1.5 c -0.397805,0 -0.77937,0.158049 -1.06066,0.43934 C -1.341951,-0.77937 -1.5,-0.397805 -1.5,0 c 0,0.397805 0.158049,0.77937 0.43934,1.06066 C -0.77937,1.341951 -0.397805,1.5 0,1.5 Z"
       inkscape:connector-curvature="0" />
    <path
       id="path35562"
       d="M 46.90625,7.09375 44,0 H 3.5 V 2.09375 L 21,23.5 v -0.09375 l 5.59375,6.796875 q 3.90625,4.703125 5.5,6.75 1.609375,2.046875 3.109375,5 1.5,2.953125 1.5,5.546875 0,6.203125 -3.359375,9.59375 Q 30,60.5 24.203125,60.5 19.59375,60.5 15.75,56.703125 11.90625,52.90625 10.90625,45.90625 l -7.203125,1.6875 Q 5.296875,56.5 11.1875,62.046875 q 5.90625,5.546875 13.71875,5.546875 8.6875,0 14.1875,-5.40625 5.5,-5.390625 5.5,-13.09375 Q 44.59375,43.5 42.5,39.453125 40.40625,35.40625 33.703125,27 l -16,-19.90625 z"
       inkscape:connector-curvature="0"
       style="stroke-linecap:butt;stroke-linejoin:round" />
    <path
       id="path35564"
       d="M 18.09375,4.296875 Q 18.09375,2.09375 16.4375,0.5 14.796875,-1.09375 12.5,-1.09375 10.203125,-1.09375 8.59375,0.5 7,2.09375 7,4.390625 7,6.703125 8.640625,8.34375 10.296875,10 12.59375,10 q 2.203125,0 3.84375,-1.703125 1.65625,-1.703125 1.65625,-4 z"
       inkscape:connector-curvature="0"
       style="stroke-linecap:butt;stroke-linejoin:round" />
    <path
       id="path35566"
       d="M 59.703125,2.203125 55.09375,-2.5 32,20.5 8.90625,-2.5 4.296875,2.09375 l 23,23.109375 -23,23.09375 L 9,52.90625 l 23,-23 23.09375,23 4.609375,-4.5 -23,-23.203125 z"
       inkscape:connector-curvature="0"
       style="stroke-linecap:butt;stroke-linejoin:round" />
    <path
       id="path35586"
       d="m 67.90625,66.203125 -1,-7.40625 H 30.703125 l -5,-20.203125 h 29.59375 l -1.890625,-7.5 H 23.796875 L 16.09375,0 h -8.6875 l 16.5,66.203125 z"
       inkscape:connector-curvature="0"
       style="stroke-linecap:butt;stroke-linejoin:round" />
    <path
       id="path35588"
       d="m 36.703125,16.59375 6.5,-3.390625 Q 40,5.90625 34.703125,2.40625 29.796875,-1 23.203125,-1 q -7.40625,0 -12.5,4 -8.40625,6.5 -8.40625,18.59375 0,10.90625 6.25,17.796875 6.25,6.90625 15.65625,6.90625 5.5,0 10,-2.296875 4.5,-2.296875 6.890625,-6.90625 L 36.703125,31.703125 H 35.09375 q -3.1875,7.5 -11.296875,7.5 -5.703125,0 -9.65625,-4.5 -3.9375,-4.5 -3.9375,-12.5 0,-7.40625 3.890625,-11.765625 Q 18,6.09375 23.796875,6.09375 q 8.109375,0 12.90625,10.5 z"
       inkscape:connector-curvature="0"
       style="stroke-linecap:butt;stroke-linejoin:round" />
    <path
       id="path35590"
       d="m 39.09375,0 h -8.5 l -0.5,4.40625 Q 24.09375,-1 15.203125,-1 9.796875,-1 6.640625,1.796875 3.5,4.59375 3.5,10.09375 3.5,17.296875 9.84375,22 q 6.359375,4.703125 20.359375,7.40625 v 3.296875 q 0,2.890625 -2.359375,4.6875 -2.34375,1.8125 -6.140625,1.8125 -7.609375,0 -10.796875,-9 h -1.5 L 4.5,33.296875 q 1.296875,6.796875 6.09375,9.890625 4.8125,3.109375 11.3125,3.109375 7.390625,0 11.78125,-3.65625 Q 38.09375,39 38.09375,32.59375 v -25 q 0,-2.890625 1,-7.59375 z m -8.890625,13.203125 v 9 Q 21.59375,20.796875 16.40625,17.90625 q -5,-2.609375 -5,-6.703125 0,-5.109375 5.796875,-5.109375 6.703125,0 13,7.109375 z"
       inkscape:connector-curvature="0"
       style="stroke-linecap:butt;stroke-linejoin:round" />
    <path
       id="path35592"
       d="M 42.40625,0 H 34.5 v 30.40625 q 0,8.796875 -8.203125,8.796875 -2.890625,0 -6.796875,-2.5 -3.90625,-2.5 -5.296875,-6.5 V 0 h -7.90625 v 44 l 6.5,2.40625 0.90625,-0.5 0.203125,-5.703125 q 3.6875,3.59375 7.140625,4.84375 3.453125,1.25 7.953125,1.25 2.90625,0 5.90625,-1.359375 3,-1.34375 4.796875,-3.140625 2.703125,-3.59375 2.703125,-9.703125 z"
       inkscape:connector-curvature="0"
       style="stroke-linecap:butt;stroke-linejoin:round" />
    <path
       id="path35594"
       d="m 28.703125,8.703125 -1.109375,-7.5 Q 24.703125,-1 18.796875,-1 13.703125,-1 10.890625,2.046875 8.09375,5.09375 8.09375,10.40625 v 27.796875 h -8 v 1.703125 l 4.5,5.390625 h 3.5 v 6.40625 L 14.203125,58 H 16 V 45.296875 h 10.40625 v -7.09375 H 16 v -24.5 Q 16,9.296875 17.296875,7.6875 18.59375,6.09375 21.09375,6.09375 q 3.703125,0 6.40625,2.609375 z"
       inkscape:connector-curvature="0"
       style="stroke-linecap:butt;stroke-linejoin:round" />
    <path
       id="path35607"
       d="m 69.09375,0 h -7.6875 v 29.296875 q 0,9.90625 -7.90625,9.90625 -2.703125,0 -6.5625,-2.5625 -3.84375,-2.546875 -5.234375,-6.4375 V 0 H 33.90625 v 29 q 0,10.203125 -7.703125,10.203125 -2.703125,0 -6.703125,-2.5 -4,-2.5 -5.296875,-6.5 V 0 H 6.5 v 44 l 6.5,2.40625 0.90625,-0.5 v -5.703125 q 4.890625,6.09375 13.890625,6.09375 8.90625,0 13.109375,-6.5 5.890625,6.5 14.1875,6.5 5.90625,0 9.953125,-3.859375 Q 69.09375,38.59375 69.09375,31.5 Z"
       inkscape:connector-curvature="0"
       style="stroke-linecap:butt;stroke-linejoin:round" />
    <path
       id="path35609"
       d="M 47.09375,22.90625 Q 47.09375,19 45.6875,14.953125 44.296875,10.90625 41.6875,7.25 39.09375,3.59375 34.6875,1.296875 30.296875,-1 24.796875,-1 15.09375,-1 8.9375,5.84375 q -6.140625,6.859375 -6.140625,17.0625 0,9.6875 6,16.53125 6,6.859375 15.703125,6.859375 10.09375,0 16.34375,-6.296875 6.25,-6.296875 6.25,-17.09375 z m -7.890625,-0.109375 q 0,7.609375 -4.0625,12 -4.046875,4.40625 -10.546875,4.40625 -6.296875,0 -10.09375,-4.8125 -3.796875,-4.796875 -3.796875,-11.59375 0,-7.203125 4,-11.953125 4,-4.75 10.203125,-4.75 6.6875,0 10.484375,5.34375 3.8125,5.359375 3.8125,11.359375 z"
       inkscape:connector-curvature="0"
       style="stroke-linecap:butt;stroke-linejoin:round" />
    <path
       id="path35611"
       d="m 14.40625,0 h -8.3125 v 66 l 7.40625,2.40625 0.90625,-0.5 z"
       inkscape:connector-curvature="0"
       style="stroke-linecap:butt;stroke-linejoin:round" />
    <path
       id="path35632"
       d="m 36.203125,16.703125 6.59375,-3.5 Q 39,5.59375 34.59375,2.296875 30.203125,-1 23,-1 13.90625,-1 8.09375,5.25 2.296875,11.5 2.296875,22.59375 q 0,11.609375 7.203125,18.3125 5.703125,5.390625 14.296875,5.390625 7.90625,0 12.59375,-5.15625 Q 41.09375,36 41.09375,27.703125 v -5.5 H 10.203125 q 0,-7.609375 3.890625,-11.859375 3.90625,-4.25 9.703125,-4.25 7.90625,0 12.40625,10.609375 z M 11.5,29.296875 H 33 q -0.296875,9.90625 -10,9.90625 -4,0 -7.296875,-2.5 -3.296875,-2.5 -4.203125,-7.40625 z"
       inkscape:connector-curvature="0"
       style="stroke-linecap:butt;stroke-linejoin:round" />
    <path
       id="path35634"
       d="m 45.203125,0 h -9.40625 L 23.59375,17.5 12.40625,0 H 3 L 19.09375,23.90625 4.203125,45.296875 h 9.390625 l 10.5,-15.09375 9.703125,15.09375 h 9.40625 L 28.59375,23.59375 Z"
       inkscape:connector-curvature="0"
       style="stroke-linecap:butt;stroke-linejoin:round" />
    <path
       id="path35636"
       d="m 14.203125,45.90625 0.203125,-5 q 5.5,5.390625 13.6875,5.390625 Q 33.5,46.296875 37.203125,44 41.5,41.296875 44.25,36.046875 47,30.796875 47,24.40625 47,13.796875 40.640625,6.390625 34.296875,-1 25.296875,-1 19.59375,-1 14.59375,2.59375 v -21.796875 l -7,-2.390625 -0.890625,0.5 V 44 l 6.703125,2.40625 z M 14.59375,29.5 V 12.296875 Q 18.5,6.09375 24.90625,6.09375 q 6.5,0 10.34375,4.796875 3.84375,4.8125 3.84375,12.109375 0,6.90625 -3.5,11.546875 -3.5,4.65625 -9.5,4.65625 -3.5,0 -6.703125,-2.65625 Q 16.203125,33.90625 14.59375,29.5 Z"
       inkscape:connector-curvature="0"
       style="stroke-linecap:butt;stroke-linejoin:round" />
    <path
       id="path35654"
       d="m 43.5,-21.09375 -0.90625,-0.5 -7,2.390625 V 4.203125 Q 30.296875,-1 22.09375,-1 16.90625,-1 13,1.296875 8.59375,4 5.6875,9.25 2.796875,14.5 2.796875,20.90625 2.796875,31.5 9.140625,38.890625 15.5,46.296875 24.5,46.296875 q 6.59375,0 11.40625,-3.5 l 6.5,3.609375 L 43.5,45.796875 Z M 35.59375,15.796875 V 32.90625 q -2,3 -4.90625,4.640625 -2.890625,1.65625 -5.78125,1.65625 -5.5,0 -9.859375,-4.8125 -4.34375,-4.796875 -4.34375,-12.1875 0,-6.90625 3.5,-11.515625 3.5,-4.59375 9.5,-4.59375 3.5,0 6.890625,2.703125 3.40625,2.703125 5,7 z"
       inkscape:connector-curvature="0"
       style="stroke-linecap:butt;stroke-linejoin:round" />
    <path
       id="path35680"
       d="M 19.09375,0 V 10.40625 H 8.703125 V 0 Z"
       inkscape:connector-curvature="0"
       style="stroke-linecap:butt;stroke-linejoin:round" />
    <path
       id="path35725"
       d="M 59.296875,64.703125 V 72.90625 H 2.09375 v -8.203125 h 24 V 0 h 9.3125 v 64.703125 z"
       inkscape:connector-curvature="0"
       style="stroke-linecap:butt;stroke-linejoin:round" />
    <path
       id="path35727"
       d="M 15.296875,0 V 52.40625 H 7 V 0 Z m 1.109375,60.296875 v 10.40625 H 6 v -10.40625 z"
       inkscape:connector-curvature="0"
       style="stroke-linecap:butt;stroke-linejoin:round" />
    <path
       id="path35729"
       d="m 37.59375,45.296875 -1.6875,-7.09375 H 25.5 l -6.09375,-24.5 q -0.609375,-2.40625 -0.609375,-3.90625 0,-3.703125 3.796875,-3.703125 3.609375,0 7,2.609375 h 1.203125 l -3,-7.5 Q 24.40625,-1 18.5,-1 q -4.09375,0 -6.25,2.046875 -2.15625,2.046875 -2.15625,5.65625 0,1.5 0.5,3.703125 l 7,27.796875 h -8 L 10,39.90625 l 5.796875,5.390625 h 3.5 L 20.90625,51.703125 28.59375,58 h 1.8125 L 27.203125,45.296875 Z"
       inkscape:connector-curvature="0"
       style="stroke-linecap:butt;stroke-linejoin:round" />
    <path
       id="path35776"
       d="m 51.296875,22 c 0,13.203125 -9,22.09375 -21.703125,22.09375 -7,0 -12.5,-2.6875 -16.296875,-7.890625 C 13.40625,53.5 19,63.09375 29.09375,63.09375 c 6.203125,0 10.5,-3.890625 11.90625,-10.6875 h 8.796875 C 48.09375,64 40.5,70.90625 29.703125,70.90625 13.203125,70.90625 4.296875,57 4.296875,32.296875 4.296875,10.203125 11.90625,-1.5 28.09375,-1.5 c 13.5,0 23.203125,9.59375 23.203125,23.5 z m -9,-0.703125 c 0,-8.890625 -6,-15 -14.09375,-15 -8.203125,0 -14.40625,6.40625 -14.40625,15.5 0,8.796875 6,14.5 14.703125,14.5 8.5,0 13.796875,-5.5 13.796875,-15 z"
       inkscape:connector-curvature="0"
       style="stroke-linecap:butt;stroke-linejoin:round" />
    <path
       id="path35789"
       d="m 51.296875,20 c 0,7.90625 -4,13.40625 -12.203125,17.296875 7.3125,4.40625 9.703125,8 9.703125,14.703125 0,11.09375 -8.703125,18.90625 -21.296875,18.90625 C 15,70.90625 6.203125,63.09375 6.203125,52 c 0,-6.59375 2.390625,-10.203125 9.59375,-14.703125 C 7.703125,33.40625 3.703125,27.90625 3.703125,20.09375 3.703125,7.09375 13.5,-1.5 27.5,-1.5 c 14,0 23.796875,8.59375 23.796875,21.5 z m -11.5,31.796875 c 0,-6.59375 -4.890625,-11 -12.296875,-11 -7.40625,0 -12.296875,4.40625 -12.296875,11.109375 0,6.796875 4.890625,11.1875 12.296875,11.1875 7.5,0 12.296875,-4.390625 12.296875,-11.296875 z m 2.5,-31.890625 c 0,-8.40625 -6,-13.609375 -15,-13.609375 -8.59375,0 -14.59375,5.296875 -14.59375,13.609375 0,8.296875 6,13.5 14.796875,13.5 8.796875,0 14.796875,-5.203125 14.796875,-13.5 z"
       inkscape:connector-curvature="0"
       style="stroke-linecap:butt;stroke-linejoin:round" />
    <path
       id="path35799"
       d="m 67.90625,0 v 2.296875 c -3.5,2.40625 -4.3125,5 -4.40625,14.703125 -0.203125,12 -2,15.59375 -9.90625,19 8.203125,4 11.5,9.09375 11.5,17.40625 0,12.59375 -7.890625,19.5 -22.1875,19.5 H 9.296875 V 0 h 9.296875 v 31.40625 h 24 c 8.203125,0 12.109375,-4 12,-13 L 54.5,11.90625 C 54.40625,7.40625 55.296875,3 56.59375,0 Z m -12.5,52.09375 c 0,-8.59375 -4.40625,-12.5 -14.3125,-12.5 h -22.5 v 25.109375 h 22.5 c 10.40625,0 14.3125,-4.40625 14.3125,-12.609375 z"
       inkscape:connector-curvature="0"
       style="stroke-linecap:butt;stroke-linejoin:round" />
    <path
       id="path35801"
       d="M 48.203125,0 V 52.40625 H 39.90625 V 23.5 c 0,-10.703125 -5.609375,-17.703125 -14.3125,-17.703125 -6.59375,0 -10.796875,4 -10.796875,10.296875 v 36.3125 H 6.5 V 12.796875 C 6.5,4.09375 13,-1.5 23.203125,-1.5 c 7.703125,0 12.59375,2.703125 17.5,9.59375 V 0 Z"
       inkscape:connector-curvature="0"
       style="stroke-linecap:butt;stroke-linejoin:round" />
    <path
       id="path35803"
       d="M 25.40625,0 V 7 C 24.296875,6.703125 23,6.59375 21.40625,6.59375 c -3.609375,0 -4.609375,1 -4.609375,4.703125 V 45.59375 h 8.609375 v 6.8125 H 16.796875 V 66.796875 H 8.5 V 52.40625 H 1.40625 v -6.8125 H 8.5 v -38 c 0,-5.296875 3.59375,-8.296875 10.09375,-8.296875 2,0 4,0.203125 6.8125,0.703125 z"
       inkscape:connector-curvature="0"
       style="stroke-linecap:butt;stroke-linejoin:round" />
    <path
       id="path35805"
       d="M 49.5,0 V 72.90625 H 41.203125 V 45.796875 c -3.5,5.296875 -9.109375,8.109375 -16.109375,8.109375 -13.59375,0 -22.5,-10.5 -22.5,-27.203125 C 2.59375,9 11.296875,-1.5 25.40625,-1.5 c 7.1875,0 12.1875,2.703125 16.6875,9.203125 V 0 Z m -8.296875,26 c 0,-12.09375 -5.796875,-19.703125 -14.609375,-19.703125 -9.1875,0 -15.296875,7.703125 -15.296875,19.90625 0,12.203125 6.109375,19.890625 15.203125,19.890625 9,0 14.703125,-8 14.703125,-20.09375 z"
       inkscape:connector-curvature="0"
       style="stroke-linecap:butt;stroke-linejoin:round" />
    <path
       id="path35807"
       d="m 52.296875,26.796875 c 0,17 -8.59375,27.109375 -22.390625,27.109375 -7.203125,0 -12.3125,-2.703125 -16.203125,-8.609375 V 72.90625 H 5.40625 V 0 h 7.5 v 7.5 c 4,-6.09375 9.296875,-9 16.59375,-9 13.796875,0 22.796875,11.296875 22.796875,28.296875 z m -8.703125,-0.5 c 0,-11.890625 -6.1875,-20 -15.296875,-20 -8.796875,0 -14.59375,8 -14.59375,19.90625 C 13.703125,38.5 19.5,46.5 28.296875,46.09375 37.59375,46.09375 43.59375,38 43.59375,26.296875 Z"
       inkscape:connector-curvature="0"
       style="stroke-linecap:butt;stroke-linejoin:round" />
    <path
       id="path36056"
       d="M 52.59375,63.296875 48.796875,57.40625 47.09375,57.296875 q -2.390625,2.203125 -3.75,3.046875 -1.34375,0.859375 -3.25,0.859375 -3.09375,0 -5.640625,-2.5 -2.546875,-2.5 -3.859375,-7.796875 L 29.203125,45.296875 H 40.59375 l -1.6875,-7.09375 H 27.5 L 18,0 h -7.90625 l 9.5,38.203125 H 11.5 l 1.703125,7.09375 h 8.09375 l 1.109375,4.109375 q 2.796875,10.09375 8.390625,14.890625 5,4 10.40625,4 6.796875,0 11.390625,-5 z"
       inkscape:connector-curvature="0"
       style="stroke-linecap:butt;stroke-linejoin:round" />
    <path
       id="path36058"
       d="m 30.40625,-16.09375 -1.203125,-1.609375 Q 17.59375,-11.09375 11.1875,0.5 4.796875,12.09375 4.796875,25.203125 4.796875,52.90625 29.5,67.59375 L 30.40625,66 Q 20.203125,57.296875 16.796875,48.84375 13.40625,40.40625 13.40625,25.5 q 0,-14.796875 3.5,-24 3.5,-9.203125 13.5,-17.59375 z"
       inkscape:connector-curvature="0"
       style="stroke-linecap:butt;stroke-linejoin:round" />
    <path
       id="path36060"
       d="m 2.90625,66 1.1875,1.59375 Q 15.5,60.796875 22,49.1875 28.5,37.59375 28.5,24.703125 28.5,-2.59375 3.796875,-17.703125 L 2.90625,-16.09375 q 10.296875,8.5 13.640625,16.9375 3.359375,8.453125 3.359375,23.5625 0,15.1875 -3.359375,24.34375 Q 13.203125,57.90625 2.90625,66 Z"
       inkscape:connector-curvature="0"
       style="stroke-linecap:butt;stroke-linejoin:round" />
  </defs>
  <path
     style="fill:none;stroke:#000000;stroke-width:3;stroke-linecap:butt;stroke-linejoin:miter;stroke-opacity:1"
     d="m 140.20937,163.90076 c 14.53452,19.80186 88.85395,16.88194 94.55208,17.82291"
     id="path13243"
     inkscape:connector-curvature="0"
     sodipodi:nodetypes="cc" />
  <path
     style="fill:none;stroke:#000000;stroke-width:3;stroke-linecap:butt;stroke-linejoin:miter;stroke-opacity:1"
     d="m 140.81353,164.80701 c 0.30209,44.10416 0.30209,44.10416 0.30209,44.10416 l 23.86458,-32.625"
     id="path13245"
     inkscape:connector-curvature="0" />
  <path
     style="fill:none;stroke:#000000;stroke-width:4;stroke-linecap:butt;stroke-linejoin:miter;stroke-opacity:1"
     d="M 91.876032,219.62992 H 802.37603"
     id="path13249"
     inkscape:connector-curvature="0" />
  <path
     style="fill:none;stroke:#000000;stroke-width:3;stroke-linecap:butt;stroke-linejoin:miter;stroke-opacity:1"
     d="m 304.5427,109.82784 c 45.58032,-9.06235 93.10159,-7.77154 94.85417,-8.15625"
     id="path13251"
     inkscape:connector-curvature="0"
     sodipodi:nodetypes="cc" />
  <path
     style="fill:none;stroke:#000000;stroke-width:3;stroke-linecap:butt;stroke-linejoin:miter;stroke-opacity:1"
     d="m 305.14687,109.82784 c 18.72916,35.04167 18.72916,35.04167 18.72916,35.04167 l 6.94792,-39.27084"
     id="path13253"
     inkscape:connector-curvature="0" />
  <path
     style="fill:none;stroke:#000000;stroke-width:3;stroke-linecap:butt;stroke-linejoin:miter;stroke-opacity:1"
     d="m 484.88645,89.890335 c 5.73958,-28.39584 95.30729,-30.8125 95.30729,-30.8125"
     id="path13255"
     inkscape:connector-curvature="0"
     sodipodi:nodetypes="cc" />
  <path
     style="fill:none;stroke:#000000;stroke-width:3;stroke-linecap:butt;stroke-linejoin:miter;stroke-opacity:1"
     d="m 507.39166,71.161165 c 7.70312,41.083345 7.85417,41.083345 7.85417,41.083345 L 485.33958,88.530955"
     id="path13257"
     inkscape:connector-curvature="0" />
  <path
     style="fill:none;stroke:#000000;stroke-width:3;stroke-linecap:butt;stroke-linejoin:miter;stroke-opacity:1"
     d="m 664.02187,61.192415 h 97.57291"
     id="path13259"
     inkscape:connector-curvature="0" />
  <path
     style="fill:none;stroke:#000000;stroke-width:3;stroke-linecap:butt;stroke-linejoin:miter;stroke-opacity:1"
     d="m 691.51145,61.494505 c -13.29167,37.45833 -13.29167,37.45833 -13.29167,37.45833 l -12.6875,-38.0625"
     id="path13261"
     inkscape:connector-curvature="0" />
  <path
     style="fill:none;stroke:#000000;stroke-width:3;stroke-linecap:butt;stroke-linejoin:miter;stroke-opacity:1"
     d="m 140.75839,210.16207 c 4.74812,5.04404 10.51856,-2.5518 15.79888,-2.82239 7.09825,-2.56356 9.0854,8.67558 0.96195,6.4422 -6.44226,-2.01906 -12.1381,3.01158 -18.56103,1.92226 -5.65785,-0.63965 -11.22989,-6.28806 -16.928,-3.29405 -3.32439,7.36375 9.49754,3.18952 13.61414,4.05204 2.08671,0.0469 4.9545,-0.0267 5.9685,2.24421"
     id="path13287"
     inkscape:connector-curvature="0"
     sodipodi:nodetypes="ccccccc" />
  <circle
     style="fill:#3139ae;fill-opacity:1;stroke:#3139ae;stroke-width:3.65413523;stroke-linecap:butt;stroke-linejoin:round;stroke-miterlimit:4;stroke-dasharray:none;stroke-dashoffset:0;stroke-opacity:1"
     id="path12987-1"
     cx="140.33118"
     cy="214.86137"
     r="2.3916821" />
  <path
     style="fill:#ebebf6;fill-opacity:1;stroke:#ebebf6;stroke-width:1.28163099;stroke-linecap:butt;stroke-linejoin:round;stroke-miterlimit:4;stroke-dasharray:none;stroke-dashoffset:0;stroke-opacity:1"
     d="m 142.75076,191.58781 c -0.32807,-13.48792 -0.36452,-22.58914 -0.0905,-22.58914 0.1057,0 1.02643,0.56302 2.04605,1.25116 2.49303,1.68252 7.71071,3.92445 13.03839,5.60232 3.02123,0.95149 4.26778,1.52804 4.01266,1.85591 -0.20356,0.2616 -4.36202,5.9546 -9.24104,12.65113 -4.87903,6.69652 -9.00865,12.32706 -9.17696,12.5123 -0.1683,0.18525 -0.43319,-4.89241 -0.58864,-11.28368 z"
     id="path13316"
     inkscape:connector-curvature="0" />
  <path
     style="fill:#ebebf6;fill-opacity:1;stroke:#ebebf6;stroke-width:1.28163099;stroke-linecap:butt;stroke-linejoin:round;stroke-miterlimit:4;stroke-dasharray:none;stroke-dashoffset:0;stroke-opacity:1"
     d="m 315.30149,125.14999 c -4.07646,-7.64756 -7.32609,-13.99031 -7.2214,-14.095 0.24172,-0.24172 14.17993,-2.56811 17.73042,-2.95934 1.46854,-0.16182 2.67781,-0.13116 2.68726,0.0681 0.0414,0.87217 -5.36815,30.90704 -5.56524,30.89938 -0.12061,-0.005 -3.55458,-6.26561 -7.63104,-13.91317 z"
     id="path13318"
     inkscape:connector-curvature="0" />
  <path
     style="fill:#ebebf6;fill-opacity:1;stroke:#ebebf6;stroke-width:1.28163099;stroke-linecap:butt;stroke-linejoin:round;stroke-miterlimit:4;stroke-dasharray:none;stroke-dashoffset:0;stroke-opacity:1"
     d="m 500.40091,98.242275 c -6.43088,-5.0909 -11.97022,-9.51782 -12.30965,-9.8376 -1.46774,-1.38277 2.51378,-6.25253 8.14544,-9.96262 4.2697,-2.81284 9.19345,-5.08488 9.71651,-4.48362 0.40449,0.46497 6.58953,33.090715 6.3236,33.356645 -0.10086,0.10086 -5.44502,-3.9819 -11.8759,-9.072805 z"
     id="path13320"
     inkscape:connector-curvature="0" />
  <path
     style="fill:#ebebf6;fill-opacity:1;stroke:#ebebf6;stroke-width:1.28163099;stroke-linecap:butt;stroke-linejoin:round;stroke-miterlimit:4;stroke-dasharray:none;stroke-dashoffset:0;stroke-opacity:1"
     d="m 673.33446,78.621325 c -2.74126,-8.22385 -4.9841,-15.09659 -4.9841,-15.27277 0,-0.17618 4.61387,-0.32032 10.25305,-0.32032 5.74383,0 10.25304,0.16805 10.25304,0.38211 0,0.21016 -2.27594,6.79454 -5.05764,14.63195 -2.78171,7.83742 -5.15273,14.53821 -5.26894,14.89066 -0.11622,0.35245 -2.45415,-6.08779 -5.19541,-14.31163 z"
     id="path13322"
     inkscape:connector-curvature="0" />
  <path
     style="fill:none;stroke:#000000;stroke-width:3;stroke-linecap:butt;stroke-linejoin:miter;stroke-opacity:1"
     d="m 323.78138,144.72559 c 1.76594,7.56258 -13.2385,17.25338 -2.09741,22.56354 7.18009,5.63109 6.96448,17.47054 0.74639,23.72568 -7.28563,6.75984 0.79185,13.64328 4.43729,19.56629 1.2097,2.62026 1.77905,5.81616 0.58208,8.55175"
     id="path13324"
     inkscape:connector-curvature="0"
     sodipodi:nodetypes="ccccc" />
  <circle
     style="fill:#3139ae;fill-opacity:1;stroke:#3139ae;stroke-width:3.65413523;stroke-linecap:butt;stroke-linejoin:round;stroke-miterlimit:4;stroke-dasharray:none;stroke-dashoffset:0;stroke-opacity:1"
     id="path12987-1-1"
     cx="326.16766"
     cy="177.69408"
     r="2.3916821" />
  <path
     style="fill:none;stroke:#000000;stroke-width:3;stroke-linecap:butt;stroke-linejoin:miter;stroke-opacity:1"
     d="m 515.39687,113.48409 c 0,106.9375 0,104.52083 0,104.52083"
     id="path13350"
     inkscape:connector-curvature="0" />
  <circle
     style="fill:#3139ae;fill-opacity:1;stroke:#3139ae;stroke-width:3.65413523;stroke-linecap:butt;stroke-linejoin:round;stroke-miterlimit:4;stroke-dasharray:none;stroke-dashoffset:0;stroke-opacity:1"
     id="path12987-1-1-5"
     cx="515.39691"
     cy="162.42159"
     r="2.3916821" />
  <path
     style="fill:none;stroke:#000000;stroke-width:3;stroke-linecap:butt;stroke-linejoin:miter;stroke-opacity:1"
     d="m 677.9177,100.79659 c -4.39192,2.25666 -9.00948,4.74515 -11.79166,8.9832 -1.89198,2.90359 -2.30586,6.80951 -0.83427,9.9693 1.16018,2.4949 3.95075,3.68852 6.58103,3.7581 3.83209,0.30721 7.93842,-0.6536 11.49415,1.2299 1.54019,1.11476 3.45764,2.32685 3.81104,4.35531 0.24592,2.26053 -2.07591,3.68208 -4.02228,4.02125 -1.45178,0.46835 -2.93149,-0.26169 -4.35168,-0.0149 -1.67302,0.41749 -2.98472,2.27984 -2.09462,3.94789"
     id="path13370"
     inkscape:connector-curvature="0" />
  <path
     style="fill:none;stroke:#000000;stroke-width:3;stroke-linecap:butt;stroke-linejoin:miter;stroke-opacity:1"
     d="m 676.70937,218.60909 c -2.26665,-5.95269 6.88026,-9.20717 4.78233,-15.05571 -3.87399,-4.70788 -10.77749,-0.22353 -15.91025,-2.00405 -5.07783,-1.13236 -8.22596,-11.12961 -2.01114,-12.94903 5.37625,2.14703 10.3188,-0.82467 11.50632,-6.50316 0.18427,-0.61051 0.60434,-1.09593 1.02857,-1.55036"
     id="path13381"
     inkscape:connector-curvature="0" />
  <circle
     style="fill:#3139ae;fill-opacity:1;stroke:#3139ae;stroke-width:3;stroke-linecap:butt;stroke-linejoin:round;stroke-miterlimit:4;stroke-dasharray:none;stroke-dashoffset:0;stroke-opacity:1"
     id="path12987-8-7-8-6"
     transform="matrix(0.33861541,-1.1700314,1.1700314,0.33861541,388.90465,483.7485)"
     clip-path="url(#clipPath13143-80-1)"
     cx="307.36978"
     cy="156.9323"
     r="1.9635416" />
  <circle
     style="fill:#3139ae;fill-opacity:1;stroke:#3139ae;stroke-width:3;stroke-linecap:butt;stroke-linejoin:round;stroke-miterlimit:4;stroke-dasharray:none;stroke-dashoffset:0;stroke-opacity:1"
     id="path12987-8-7-8-6-2"
     transform="matrix(0.31596423,1.1763505,-1.1763505,0.31596423,764.84473,-270.82125)"
     clip-path="url(#clipPath13143-80-1-1)"
     cx="307.36978"
     cy="156.9323"
     r="1.9635416" />
  <path
     style="fill:#3e8213;stroke:#3e8213;stroke-width:4;stroke-linecap:butt;stroke-linejoin:miter;stroke-opacity:1;marker-end:url(#Arrow1MendZ)"
     d="m 153.5747,101.22343 c 0,52.97408 0,52.97408 0,52.97408"
     id="path13437"
     inkscape:connector-curvature="0" />
  <path
     style="fill:#3e8213;stroke:#3e8213;stroke-width:4;stroke-linecap:butt;stroke-linejoin:miter;stroke-opacity:1;marker-end:url(#Arrow1MendZ)"
     d="m 318.4779,91.615955 c 0,-52.97408 0,-52.97408 0,-52.97408"
     id="path13437-5"
     inkscape:connector-curvature="0" />
  <path
     style="fill:#3e8213;stroke:#3e8213;stroke-width:4;stroke-linecap:butt;stroke-linejoin:miter;stroke-opacity:1;marker-end:url(#Arrow1MendZ)"
     d="m 497.90624,60.856805 c 0,-52.9740796 0,-52.9740796 0,-52.9740796"
     id="path13437-3"
     inkscape:connector-curvature="0" />
  <path
     style="fill:none;stroke:#000000;stroke-width:3;stroke-linecap:butt;stroke-linejoin:miter;stroke-opacity:1;marker-start:url(#Arrow1Mstart);marker-end:url(#Arrow1Mend)"
     d="M 31.274982,308.17313 V 533.74019 H 289.51454"
     id="path14199"
     inkscape:connector-curvature="0"
     sodipodi:nodetypes="ccc" />
  <text
     xml:space="preserve"
     style="font-style:normal;font-variant:normal;font-weight:normal;font-stretch:normal;font-size:8.63999939px;line-height:0%;font-family:'TeX Gyre Heros';-inkscape-font-specification:'TeX Gyre Heros';letter-spacing:0px;word-spacing:0px;fill:#000000;fill-opacity:1;stroke:none;stroke-width:0.72000003"
     x="-444.35324"
     y="17.691902"
     id="text14607"
     transform="rotate(-90)"><tspan
       sodipodi:role="line"
       id="tspan14609"
       x="-444.35324"
       y="17.691902"
       style="font-style:normal;font-variant:normal;font-weight:normal;font-stretch:normal;font-size:23.04000092px;line-height:1.25;font-family:'TeX Gyre Heros';-inkscape-font-specification:'TeX Gyre Heros';stroke-width:0.72000003">force</tspan></text>
  <text
     xml:space="preserve"
     style="font-style:normal;font-variant:normal;font-weight:normal;font-stretch:normal;font-size:8.63999939px;line-height:0%;font-family:'TeX Gyre Heros';-inkscape-font-specification:'TeX Gyre Heros';letter-spacing:0px;word-spacing:0px;fill:#000000;fill-opacity:1;stroke:none;stroke-width:0.72000003"
     x="139.04001"
     y="565.05029"
     id="text14607-9"><tspan
       sodipodi:role="line"
       id="tspan14609-4"
       x="139.04001"
       y="565.05029"
       style="font-style:normal;font-variant:normal;font-weight:normal;font-stretch:normal;font-size:23.04000092px;line-height:1.25;font-family:'TeX Gyre Heros';-inkscape-font-specification:'TeX Gyre Heros';stroke-width:0.72000003">time</tspan></text>
  <path
     style="fill:none;stroke:#dd2a2b;stroke-width:4;stroke-linecap:butt;stroke-linejoin:miter;stroke-opacity:1"
     d="m 93.079272,496.14568 c 0.56412,-4.84721 -4.54488,23.93581 -2.56326,20.5061 7.53086,5.5769 -1.81724,-16.84753 6.83536,-21.36052 0.47839,3.25427 -1.0296,17.29309 0.89506,11.90582 2.158138,-3.62466 2.639228,-31.43802 4.231468,-14.46908 1.40654,12.8281 3.10053,0.72451 5.12652,-5.98095 1.77852,-10.7677 3.18495,19.81433 3.41768,1.65952 -1.36918,-4.83596 2.63655,-16.09205 2.56326,-14.42651 -0.97555,10.95611 2.13305,7.40808 1.70885,-1.10103 1.2851,-6.60622 5.85837,-18.87408 5.12652,-3.87753 0.33412,6.18186 2.08342,-11.34673 1.70884,-14.82107 -0.45887,-12.04846 4.31842,0.1563 2.56326,6.07958 2.24522,12.731 2.97798,-5.31083 2.56327,-9.94116 -0.53264,-13.23972 4.15076,1.53798 4.2721,7.3779 2.86098,8.41506 2.65142,-24.22623 5.98094,-4.27211 2.9644,9.62519 7.40208,-3.8974 6.83537,-7.78842 3.29913,-7.4424 4.70861,13.41486 5.12652,0.0986 0.88738,-5.33911 5.43071,-20.79276 5.12653,-5.98095 2.91891,-7.40995 1.21538,-16.16415 2.56326,-21.40983 -1.08814,-9.90286 2.87174,-7.72525 2.56326,0.95306 -0.1554,18.79679 3.60653,-13.38032 3.41768,-11.15679 0.9003,-0.9363 1.23443,17.04638 4.27211,3.41768 1.62576,-5.575 3.65974,-11.45989 5.98094,-5.12652 1.64449,-5.43676 4.30976,-30.56773 5.12653,-13.67073 3.34589,4.39568 1.52539,-27.33827 8.57055,-9.40828 3.20181,2.59398 1.72733,-0.66068 3.48302,-4.76046 -1.29584,-10.62287 5.8919,-5.3394 6.74368,-0.12242 1.98423,2.71091 1.87784,-10.90139 2.05411,-8.58094 -1.06479,10.39577 3.97396,1.18254 3.41768,-3.71361 v 6.17823 c 0.0185,11.82028 -0.30998,23.78427 0.85442,35.12989 V 520.0694 c 3.63448,-1.20801 4.65554,-21.20426 5.12653,-10.00644 -0.92721,7.10674 1.87381,23.74078 3.41768,7.44318 -0.48816,-9.04836 6.50654,-16.41971 5.89194,-2.31406 1.28577,10.44058 4.31194,-2.2188 4.36111,-5.37573 1.47521,6.85952 3.46144,25.09101 4.2721,11.10747 3.96666,-2.73975 0.23221,-16.03475 5.00633,-14.18008 0.74408,10.30453 2.03078,21.59842 1.82904,6.0464 0.11894,-13.20785 3.23475,6.23684 3.41768,10.69694 1.6072,8.26402 3.25949,-6.53698 3.41768,-9.59591 -0.84562,-12.10592 3.75842,-2.18345 3.69318,3.59332 1.33547,2.26465 0.20454,-9.96513 0.57892,-13.63312 v -2.57923 c 1.12612,8.39636 2.35258,16.20592 5.12653,23.92378 -0.15748,0.26719 -0.18057,-15.22728 2.56326,-18.79725 4.50721,2.17656 2.02265,12.14638 3.41768,16.23399"
     id="path15279"
     inkscape:connector-curvature="0"
     sodipodi:nodetypes="ccccccccccccccccccccccccccccccccccccccccccccccc" />
  <path
     style="fill:none;stroke:#800080;stroke-width:2.01867175;stroke-linecap:butt;stroke-linejoin:miter;stroke-opacity:1;marker-start:url(#StopL4U);marker-end:url(#StopLUw)"
     d="M 78.530682,327.06411 H 203.63547"
     id="path15285"
     inkscape:connector-curvature="0"
     sodipodi:nodetypes="cc" />
  <text
     xml:space="preserve"
     style="font-style:normal;font-variant:normal;font-weight:normal;font-stretch:normal;font-size:8.63999939px;line-height:0%;font-family:'TeX Gyre Heros';-inkscape-font-specification:'TeX Gyre Heros';letter-spacing:0px;word-spacing:0px;fill:#800080;fill-opacity:1;stroke:none;stroke-width:0.72000003"
     x="67.399529"
     y="297.40765"
     id="text14607-9-2"><tspan
       sodipodi:role="line"
       id="tspan14609-4-4"
       x="67.399529"
       y="297.40765"
       style="font-style:normal;font-variant:normal;font-weight:normal;font-stretch:normal;font-size:23.04000092px;line-height:1.25;font-family:'TeX Gyre Heros';-inkscape-font-specification:'TeX Gyre Heros';fill:#800080;stroke:none;stroke-width:0.72000003">time to rupture</tspan></text>
  <path
     style="fill:none;stroke:#dd2a2b;stroke-width:4;stroke-linecap:butt;stroke-linejoin:miter;stroke-opacity:1"
     d="m 43.522882,510.08208 c -0.92721,7.10674 1.87381,23.74078 3.41768,7.44318 -0.48816,-9.04836 6.50654,-16.41971 5.89194,-2.31406 1.28577,10.44058 4.31194,-2.2188 4.36111,-5.37573 1.47521,6.85952 3.46144,25.09101 4.2721,11.10747 3.96666,-2.73975 0.23221,-16.03475 5.00633,-14.18008 0.74408,10.30453 2.03078,21.59842 1.82904,6.0464 0.11894,-13.20785 3.23475,6.23684 3.41768,10.69694 1.6072,8.26402 3.25949,-6.53698 3.41768,-9.59591 -0.84562,-12.10592 3.75842,-2.18345 3.69318,3.59332 1.33547,2.26465 0.20454,-9.96513 0.57892,-13.63312 v -2.57923 c 1.12612,8.39636 2.35258,16.20592 5.12653,23.92378 -0.15748,0.26719 -0.18057,-15.22728 2.56326,-18.79725 4.50721,2.17656 2.02265,12.14638 3.41768,16.23399"
     id="path15279-3"
     inkscape:connector-curvature="0"
     sodipodi:nodetypes="ccccccccccccccc" />
  <g
     id="g37768"
     transform="matrix(1.3333333,0,0,1.3333333,800.46639,-79.940832)"
     style="stroke-linecap:butt;stroke-linejoin:round">
    <g
       transform="matrix(1.4722091,0,0,1.4722091,-365.64397,-130.68761)"
       id="axes_3"
       style="stroke-linecap:butt;stroke-linejoin:round">
      <g
         id="matplotlib.axis_5"
         style="stroke-linecap:butt;stroke-linejoin:round">
        <g
           id="xtick_11"
           style="stroke-linecap:butt;stroke-linejoin:round">
          <g
             id="line2d_49"
             style="stroke-linecap:butt;stroke-linejoin:round">
            <g
               id="g34371"
               style="stroke-linecap:butt;stroke-linejoin:round">
              <path
                 inkscape:connector-curvature="0"
                 d="m 64.70137,399.87646 v -3.5"
                 id="use34369"
                 style="stroke:#000000;stroke-width:0.80000001;stroke-linecap:butt;stroke-linejoin:round" />
            </g>
          </g>
          <g
             id="text_25"
             style="stroke-linecap:butt;stroke-linejoin:round">
            <!-- 0.0 -->
            <defs
               id="defs34375">
              <path
                 id="path9198"
                 d="M 19.09375,0 V 10.40625 H 8.703125 V 0 Z"
                 inkscape:connector-curvature="0"
                 style="stroke-linecap:butt;stroke-linejoin:round" />
            </defs>
            <g
               id="g34383"
               transform="matrix(0.08,0,0,-0.08,59.141995,409.20896)"
               style="stroke-linecap:butt;stroke-linejoin:round">
              <path
                 style="stroke-linecap:butt;stroke-linejoin:round"
                 inkscape:connector-curvature="0"
                 d="m 50.703125,34.09375 c 0,24.609375 -7.796875,36.8125 -23.203125,36.8125 C 12.203125,70.90625 4.296875,58.5 4.296875,34.703125 4.296875,10.796875 12.296875,-1.5 27.5,-1.5 c 15,0 23.203125,12.296875 23.203125,35.59375 z m -9,0.8125 c 0,-20.109375 -4.609375,-29.109375 -14.40625,-29.109375 -9.296875,0 -14,9.40625 -14,28.796875 0,19.40625 4.703125,28.5 14.203125,28.5 9.5,0 14.203125,-9.1875 14.203125,-28.1875 z"
                 id="use34377" />
              <path
                 style="stroke-linecap:butt;stroke-linejoin:round"
                 inkscape:connector-curvature="0"
                 d="M 74.693741,0 V 10.40625 H 64.303116 V 0 Z"
                 id="use34379" />
              <path
                 style="stroke-linecap:butt;stroke-linejoin:round"
                 inkscape:connector-curvature="0"
                 d="m 134.1031,34.09375 c 0,24.609375 -7.79687,36.8125 -23.20312,36.8125 -15.296876,0 -23.203126,-12.40625 -23.203126,-36.203125 0,-23.90625 8,-36.203125 23.203126,-36.203125 15,0 23.20312,12.296875 23.20312,35.59375 z m -9,0.8125 c 0,-20.109375 -4.60937,-29.109375 -14.40625,-29.109375 -9.29687,0 -13.999996,9.40625 -13.999996,28.796875 0,19.40625 4.703126,28.5 14.203126,28.5 9.5,0 14.20312,-9.1875 14.20312,-28.1875 z"
                 id="use34381" />
            </g>
          </g>
        </g>
        <g
           id="xtick_12"
           style="stroke-linecap:butt;stroke-linejoin:round">
          <g
             id="line2d_50"
             style="stroke-linecap:butt;stroke-linejoin:round">
            <g
               id="g34389"
               style="stroke-linecap:butt;stroke-linejoin:round">
              <path
                 inkscape:connector-curvature="0"
                 d="m 107.34545,399.87646 v -3.5"
                 id="use34387"
                 style="stroke:#000000;stroke-width:0.80000001;stroke-linecap:butt;stroke-linejoin:round" />
            </g>
          </g>
          <g
             id="text_26"
             style="stroke-linecap:butt;stroke-linejoin:round">
            <!-- 0.5 -->
            <g
               id="g34398"
               transform="matrix(0.08,0,0,-0.08,101.78608,409.20896)"
               style="stroke-linecap:butt;stroke-linejoin:round">
              <path
                 style="stroke-linecap:butt;stroke-linejoin:round"
                 inkscape:connector-curvature="0"
                 d="m 50.703125,34.09375 c 0,24.609375 -7.796875,36.8125 -23.203125,36.8125 C 12.203125,70.90625 4.296875,58.5 4.296875,34.703125 4.296875,10.796875 12.296875,-1.5 27.5,-1.5 c 15,0 23.203125,12.296875 23.203125,35.59375 z m -9,0.8125 c 0,-20.109375 -4.609375,-29.109375 -14.40625,-29.109375 -9.296875,0 -14,9.40625 -14,28.796875 0,19.40625 4.703125,28.5 14.203125,28.5 9.5,0 14.203125,-9.1875 14.203125,-28.1875 z"
                 id="use34392" />
              <path
                 style="stroke-linecap:butt;stroke-linejoin:round"
                 inkscape:connector-curvature="0"
                 d="M 74.693741,0 V 10.40625 H 64.303116 V 0 Z"
                 id="use34394" />
              <path
                 style="stroke-linecap:butt;stroke-linejoin:round"
                 inkscape:connector-curvature="0"
                 d="m 134.69685,23.5 c 0,14 -9.29687,23.203125 -22.89062,23.203125 -5,0 -9,-1.296875 -13.109376,-4.296875 l 2.796876,18.296875 h 29.5 V 69.40625 H 94.399979 L 89.103104,32.296875 h 8.09375 c 4.109376,4.90625 7.499996,6.609375 12.999996,6.609375 9.5,0 15.5,-6.109375 15.5,-16.609375 0,-10.203125 -5.89062,-16 -15.5,-16 -7.70312,0 -12.390621,3.90625 -14.499996,11.90625 H 86.899979 C 89.806229,4.09375 97.806229,-1.5 110.39998,-1.5 c 14.29687,0 24.29687,10 24.29687,25 z"
                 id="use34396" />
            </g>
          </g>
        </g>
        <g
           id="xtick_13"
           style="stroke-linecap:butt;stroke-linejoin:round">
          <g
             id="line2d_51"
             style="stroke-linecap:butt;stroke-linejoin:round">
            <g
               id="g34404"
               style="stroke-linecap:butt;stroke-linejoin:round">
              <path
                 inkscape:connector-curvature="0"
                 d="m 149.98953,399.87646 v -3.5"
                 id="use34402"
                 style="stroke:#000000;stroke-width:0.80000001;stroke-linecap:butt;stroke-linejoin:round" />
            </g>
          </g>
          <g
             id="text_27"
             style="stroke-linecap:butt;stroke-linejoin:round">
            <!-- 1.0 -->
            <g
               id="g34413"
               transform="matrix(0.08,0,0,-0.08,144.43016,409.20896)"
               style="stroke-linecap:butt;stroke-linejoin:round">
              <path
                 style="stroke-linecap:butt;stroke-linejoin:round"
                 inkscape:connector-curvature="0"
                 d="M 34.703125,0 V 70.90625 H 28.90625 C 25.796875,60 23.796875,58.5 10.203125,56.796875 V 50.5 H 25.90625 V 0 Z"
                 id="use34407" />
              <path
                 style="stroke-linecap:butt;stroke-linejoin:round"
                 inkscape:connector-curvature="0"
                 d="M 74.693741,0 V 10.40625 H 64.303116 V 0 Z"
                 id="use34409" />
              <path
                 style="stroke-linecap:butt;stroke-linejoin:round"
                 inkscape:connector-curvature="0"
                 d="m 134.1031,34.09375 c 0,24.609375 -7.79687,36.8125 -23.20312,36.8125 -15.296876,0 -23.203126,-12.40625 -23.203126,-36.203125 0,-23.90625 8,-36.203125 23.203126,-36.203125 15,0 23.20312,12.296875 23.20312,35.59375 z m -9,0.8125 c 0,-20.109375 -4.60937,-29.109375 -14.40625,-29.109375 -9.29687,0 -13.999996,9.40625 -13.999996,28.796875 0,19.40625 4.703126,28.5 14.203126,28.5 9.5,0 14.20312,-9.1875 14.20312,-28.1875 z"
                 id="use34411" />
            </g>
          </g>
        </g>
        <g
           id="xtick_14"
           style="stroke-linecap:butt;stroke-linejoin:round">
          <g
             id="line2d_52"
             style="stroke-linecap:butt;stroke-linejoin:round">
            <g
               id="g34419"
               style="stroke-linecap:butt;stroke-linejoin:round">
              <path
                 inkscape:connector-curvature="0"
                 d="m 192.63362,399.87646 v -3.5"
                 id="use34417"
                 style="stroke:#000000;stroke-width:0.80000001;stroke-linecap:butt;stroke-linejoin:round" />
            </g>
          </g>
          <g
             id="text_28"
             style="stroke-linecap:butt;stroke-linejoin:round">
            <!-- 1.5 -->
            <g
               id="g34428"
               transform="matrix(0.08,0,0,-0.08,187.07425,409.20896)"
               style="stroke-linecap:butt;stroke-linejoin:round">
              <path
                 style="stroke-linecap:butt;stroke-linejoin:round"
                 inkscape:connector-curvature="0"
                 d="M 34.703125,0 V 70.90625 H 28.90625 C 25.796875,60 23.796875,58.5 10.203125,56.796875 V 50.5 H 25.90625 V 0 Z"
                 id="use34422" />
              <path
                 style="stroke-linecap:butt;stroke-linejoin:round"
                 inkscape:connector-curvature="0"
                 d="M 74.693741,0 V 10.40625 H 64.303116 V 0 Z"
                 id="use34424" />
              <path
                 style="stroke-linecap:butt;stroke-linejoin:round"
                 inkscape:connector-curvature="0"
                 d="m 134.69685,23.5 c 0,14 -9.29687,23.203125 -22.89062,23.203125 -5,0 -9,-1.296875 -13.109376,-4.296875 l 2.796876,18.296875 h 29.5 V 69.40625 H 94.399979 L 89.103104,32.296875 h 8.09375 c 4.109376,4.90625 7.499996,6.609375 12.999996,6.609375 9.5,0 15.5,-6.109375 15.5,-16.609375 0,-10.203125 -5.89062,-16 -15.5,-16 -7.70312,0 -12.390621,3.90625 -14.499996,11.90625 H 86.899979 C 89.806229,4.09375 97.806229,-1.5 110.39998,-1.5 c 14.29687,0 24.29687,10 24.29687,25 z"
                 id="use34426" />
            </g>
          </g>
        </g>
        <g
           id="xtick_15"
           style="stroke-linecap:butt;stroke-linejoin:round">
          <g
             id="line2d_53"
             style="stroke-linecap:butt;stroke-linejoin:round">
            <g
               id="g34434"
               style="stroke-linecap:butt;stroke-linejoin:round">
              <path
                 inkscape:connector-curvature="0"
                 d="m 235.27771,399.87646 v -3.5"
                 id="use34432"
                 style="stroke:#000000;stroke-width:0.80000001;stroke-linecap:butt;stroke-linejoin:round" />
            </g>
          </g>
          <g
             id="text_29"
             style="stroke-linecap:butt;stroke-linejoin:round">
            <!-- 2.0 -->
            <g
               id="g34443"
               transform="matrix(0.08,0,0,-0.08,229.71833,409.20896)"
               style="stroke-linecap:butt;stroke-linejoin:round">
              <path
                 style="stroke-linecap:butt;stroke-linejoin:round"
                 inkscape:connector-curvature="0"
                 d="m 51.09375,50.09375 c 0,12 -9.296875,20.8125 -22.6875,20.8125 C 13.90625,70.90625 5.5,63.5 5,46.296875 h 8.796875 c 0.703125,11.90625 5.609375,16.90625 14.296875,16.90625 8,0 14,-5.703125 14,-13.296875 0,-5.609375 -3.296875,-10.40625 -9.59375,-14 L 23.296875,30.703125 C 8.5,22.296875 4.203125,15.59375 3.40625,0 h 47.1875 V 8.703125 H 13.296875 c 0.90625,5.796875 4.109375,9.5 12.796875,14.59375 l 10,5.40625 C 46,34 51.09375,41.40625 51.09375,50.09375 Z"
                 id="use34437" />
              <path
                 style="stroke-linecap:butt;stroke-linejoin:round"
                 inkscape:connector-curvature="0"
                 d="M 74.693741,0 V 10.40625 H 64.303116 V 0 Z"
                 id="use34439" />
              <path
                 style="stroke-linecap:butt;stroke-linejoin:round"
                 inkscape:connector-curvature="0"
                 d="m 134.1031,34.09375 c 0,24.609375 -7.79687,36.8125 -23.20312,36.8125 -15.296876,0 -23.203126,-12.40625 -23.203126,-36.203125 0,-23.90625 8,-36.203125 23.203126,-36.203125 15,0 23.20312,12.296875 23.20312,35.59375 z m -9,0.8125 c 0,-20.109375 -4.60937,-29.109375 -14.40625,-29.109375 -9.29687,0 -13.999996,9.40625 -13.999996,28.796875 0,19.40625 4.703126,28.5 14.203126,28.5 9.5,0 14.20312,-9.1875 14.20312,-28.1875 z"
                 id="use34441" />
            </g>
          </g>
        </g>
        <g
           id="text_30"
           style="stroke-linecap:butt;stroke-linejoin:round"
           transform="matrix(1.4758793,0,0,1.4758793,-60.844965,-197.4674)">
          <!-- Time $t$ [ms] -->
          <defs
             id="defs34450">
            <path
               id="path9243"
               d="M 59.296875,64.703125 V 72.90625 H 2.09375 v -8.203125 h 24 V 0 h 9.3125 v 64.703125 z"
               inkscape:connector-curvature="0"
               style="stroke-linecap:butt;stroke-linejoin:round" />
            <path
               id="path9245"
               d="M 15.296875,0 V 52.40625 H 7 V 0 Z m 1.109375,60.296875 v 10.40625 H 6 v -10.40625 z"
               inkscape:connector-curvature="0"
               style="stroke-linecap:butt;stroke-linejoin:round" />
            <path
               id="path9247"
               d="m 37.59375,45.296875 -1.6875,-7.09375 H 25.5 l -6.09375,-24.5 q -0.609375,-2.40625 -0.609375,-3.90625 0,-3.703125 3.796875,-3.703125 3.609375,0 7,2.609375 h 1.203125 l -3,-7.5 Q 24.40625,-1 18.5,-1 q -4.09375,0 -6.25,2.046875 -2.15625,2.046875 -2.15625,5.65625 0,1.5 0.5,3.703125 l 7,27.796875 h -8 L 10,39.90625 l 5.796875,5.390625 h 3.5 L 20.90625,51.703125 28.59375,58 h 1.8125 L 27.203125,45.296875 Z"
               inkscape:connector-curvature="0"
               style="stroke-linecap:butt;stroke-linejoin:round" />
          </defs>
        </g>
      </g>
      <g
         id="matplotlib.axis_6"
         style="stroke-linecap:butt;stroke-linejoin:round">
        <g
           id="ytick_13"
           style="stroke-linecap:butt;stroke-linejoin:round">
          <g
             id="line2d_54"
             style="stroke-linecap:butt;stroke-linejoin:round">
            <g
               id="g34480"
               style="stroke-linecap:butt;stroke-linejoin:round">
              <path
                 inkscape:connector-curvature="0"
                 d="m 64.70137,399.87646 h -3.5"
                 id="use34478"
                 style="stroke:#000000;stroke-width:0.80000001;stroke-linecap:butt;stroke-linejoin:round" />
            </g>
          </g>
        </g>
        <g
           id="ytick_14"
           style="stroke-linecap:butt;stroke-linejoin:round">
          <g
             id="line2d_55"
             style="stroke-linecap:butt;stroke-linejoin:round">
            <g
               id="g34491"
               style="stroke-linecap:butt;stroke-linejoin:round">
              <path
                 inkscape:connector-curvature="0"
                 d="m 64.70137,374.63174 h -3.5"
                 id="use34489"
                 style="stroke:#000000;stroke-width:0.80000001;stroke-linecap:butt;stroke-linejoin:round" />
            </g>
          </g>
        </g>
        <g
           id="ytick_15"
           style="stroke-linecap:butt;stroke-linejoin:round">
          <g
             id="line2d_56"
             style="stroke-linecap:butt;stroke-linejoin:round">
            <g
               id="g34508"
               style="stroke-linecap:butt;stroke-linejoin:round">
              <path
                 inkscape:connector-curvature="0"
                 d="m 64.70137,349.38699 h -3.5"
                 id="use34506"
                 style="stroke:#000000;stroke-width:0.80000001;stroke-linecap:butt;stroke-linejoin:round" />
            </g>
          </g>
        </g>
        <g
           id="ytick_16"
           style="stroke-linecap:butt;stroke-linejoin:round">
          <g
             id="line2d_57"
             style="stroke-linecap:butt;stroke-linejoin:round">
            <g
               id="g34525"
               style="stroke-linecap:butt;stroke-linejoin:round">
              <path
                 inkscape:connector-curvature="0"
                 d="m 64.70137,324.14227 h -3.5"
                 id="use34523"
                 style="stroke:#000000;stroke-width:0.80000001;stroke-linecap:butt;stroke-linejoin:round" />
            </g>
          </g>
        </g>
        <g
           id="ytick_17"
           style="stroke-linecap:butt;stroke-linejoin:round">
          <g
             id="line2d_58"
             style="stroke-linecap:butt;stroke-linejoin:round">
            <g
               id="g34545"
               style="stroke-linecap:butt;stroke-linejoin:round">
              <path
                 inkscape:connector-curvature="0"
                 d="m 64.70137,298.89755 h -3.5"
                 id="use34543"
                 style="stroke:#000000;stroke-width:0.80000001;stroke-linecap:butt;stroke-linejoin:round" />
            </g>
          </g>
        </g>
      </g>
      <g
         id="line2d_60"
         style="stroke-linecap:butt;stroke-linejoin:round">
        <path
           id="path34627"
           style="fill:none;stroke:#ff0000;stroke-width:1.25;stroke-linecap:square;stroke-linejoin:round"
           d="m 64.70137,399.87554 127.4717,-0.1338 3.20683,-0.20619 2.40513,-0.36902 1.60342,-0.43609 1.60341,-0.70689 0.80171,-0.48252 1.60342,-1.45062 0.80171,-1.05796 0.80171,-1.25387 0.80171,-1.68755 0.80171,-2.00399 0.8017,-2.65894 0.80171,-3.14837 0.80171,-4.10455 0.80171,-4.84121 0.80171,-6.12545 0.80171,-7.17178 0.80171,-8.6449 1.60341,-21.03684 2.40513,-36.32358 0.80171,-7.92168 0.80171,-5.93259 0.80171,2.22752 0.80171,8.03746 0.80171,15.015 2.40512,65.24635 0.80171,13.64598 0.80171,8.81623 0.80171,3.98646 v 0"
           clip-path="url(#p5989690b2b)"
           inkscape:connector-curvature="0" />
      </g>
      <g
         id="line2d_61"
         style="stroke-linecap:butt;stroke-linejoin:round" />
      <g
         id="patch_13"
         style="stroke-linecap:butt;stroke-linejoin:round">
        <path
           id="path35035"
           style="fill:none;stroke:#000000;stroke-width:0.80000001;stroke-linecap:square;stroke-linejoin:miter"
           d="M 64.70137,399.87646 V 274.91506"
           inkscape:connector-curvature="0" />
      </g>
      <g
         id="patch_14"
         style="stroke-linecap:butt;stroke-linejoin:round">
        <path
           id="path35038"
           style="fill:none;stroke:#000000;stroke-width:0.80000001;stroke-linecap:square;stroke-linejoin:miter"
           d="M 235.27771,399.87646 V 274.91506"
           inkscape:connector-curvature="0" />
      </g>
      <g
         id="patch_15"
         style="stroke-linecap:butt;stroke-linejoin:round">
        <path
           id="path35041"
           style="fill:none;stroke:#000000;stroke-width:0.80000001;stroke-linecap:square;stroke-linejoin:miter"
           d="M 64.70137,399.87646 H 235.27771"
           inkscape:connector-curvature="0" />
      </g>
      <g
         id="patch_16"
         style="stroke-linecap:butt;stroke-linejoin:round">
        <path
           id="path35044"
           style="fill:none;stroke:#000000;stroke-width:0.80000001;stroke-linecap:square;stroke-linejoin:miter"
           d="M 64.70137,274.91506 H 235.27771"
           inkscape:connector-curvature="0" />
      </g>
      <g
         id="legend_3"
         style="stroke-linecap:butt;stroke-linejoin:round">
        <g
           id="line2d_63"
           style="stroke-linecap:butt;stroke-linejoin:round" />
        <g
           id="line2d_64"
           style="stroke-linecap:butt;stroke-linejoin:round" />
        <g
           id="line2d_67"
           style="stroke-linecap:butt;stroke-linejoin:round" />
      </g>
    </g>
  </g>
  <text
     xml:space="preserve"
     style="font-style:normal;font-variant:normal;font-weight:normal;font-stretch:normal;font-size:8.63999939px;line-height:0%;font-family:'TeX Gyre Heros';-inkscape-font-specification:'TeX Gyre Heros';letter-spacing:0px;word-spacing:0px;fill:#000000;fill-opacity:1;stroke:none;stroke-width:0.72000003"
     x="563.94324"
     y="581.26678"
     id="text14607-9-0"><tspan
       sodipodi:role="line"
       id="tspan14609-4-7"
       x="563.94324"
       y="581.26678"
       style="font-style:normal;font-variant:normal;font-weight:normal;font-stretch:normal;font-size:23.04000092px;line-height:1.25;font-family:'TeX Gyre Heros';-inkscape-font-specification:'TeX Gyre Heros';stroke-width:0.72000003">time [ms]</tspan></text>
  <text
     xml:space="preserve"
     style="font-style:normal;font-variant:normal;font-weight:normal;font-stretch:normal;font-size:8.63999939px;line-height:0%;font-family:'TeX Gyre Heros';-inkscape-font-specification:'TeX Gyre Heros';text-align:center;letter-spacing:0px;word-spacing:0px;text-anchor:middle;fill:#0000ff;fill-opacity:1;stroke:none;stroke-width:0.72000003"
     x="55.823402"
     y="20.730396"
     id="text14607-9-2-8"><tspan
       sodipodi:role="line"
       id="tspan14609-4-4-6"
       x="55.823402"
       y="20.730396"
       style="font-style:normal;font-variant:normal;font-weight:normal;font-stretch:normal;font-size:23.04000092px;line-height:1.25;font-family:'TeX Gyre Heros';-inkscape-font-specification:'TeX Gyre Heros';text-align:center;text-anchor:middle;fill:#0000ff;stroke:none;stroke-width:0.72000003">AFM</tspan><tspan
       sodipodi:role="line"
       x="55.823402"
       y="49.530396"
       style="font-style:normal;font-variant:normal;font-weight:normal;font-stretch:normal;font-size:23.04000092px;line-height:1.25;font-family:'TeX Gyre Heros';-inkscape-font-specification:'TeX Gyre Heros';text-align:center;text-anchor:middle;fill:#0000ff;stroke:none;stroke-width:0.72000003"
       id="tspan14588">pulling</tspan><tspan
       sodipodi:role="line"
       x="55.823402"
       y="78.330399"
       style="font-style:normal;font-variant:normal;font-weight:normal;font-stretch:normal;font-size:23.04000092px;line-height:1.25;font-family:'TeX Gyre Heros';-inkscape-font-specification:'TeX Gyre Heros';text-align:center;text-anchor:middle;fill:#0000ff;stroke:none;stroke-width:0.72000003"
       id="tspan14590">experiment</tspan></text>
  <text
     xml:space="preserve"
     style="font-style:normal;font-variant:normal;font-weight:normal;font-stretch:normal;font-size:8.63999939px;line-height:0%;font-family:'TeX Gyre Heros';-inkscape-font-specification:'TeX Gyre Heros';letter-spacing:0px;word-spacing:0px;fill:#000000;fill-opacity:1;stroke:none;stroke-width:0.72000003"
     x="-526.56055"
     y="410.48492"
     id="text14607-9-8"
     transform="rotate(-90)"><tspan
       sodipodi:role="line"
       id="tspan14609-4-8"
       x="-526.56055"
       y="410.48492"
       style="font-style:normal;font-variant:normal;font-weight:normal;font-stretch:normal;font-size:23.04000092px;line-height:1.25;font-family:'TeX Gyre Heros';-inkscape-font-specification:'TeX Gyre Heros';stroke-width:0.72000003">rupture time distribution</tspan></text>
</svg>
